<svg width="20" height="20" viewBox="0 0 20 20" fill="none" xmlns="http://www.w3.org/2000/svg">
<path d="M8.66671 2C8.48937 2 8.32002 2.06998 8.19535 2.19531L7.724 2.66667H5.15629C4.16762 2.66667 3.31582 3.40478 3.17582 4.38411L2.94535 6H4.29301L4.49613 4.57161C4.54213 4.24561 4.82696 4 5.15629 4H8.00004C8.17737 4 8.34673 3.93002 8.4714 3.80469L8.94275 3.33333H11.0573L11.5287 3.80469C11.6534 3.93002 11.8227 4 12 4H14.8438C15.1731 4 15.4579 4.24625 15.5039 4.57292L15.7071 6H17.0547L16.8243 4.38411C16.6836 3.40478 15.8325 2.66667 14.8438 2.66667H12.2761L11.8047 2.19531C11.6801 2.06998 11.5107 2 11.3334 2H8.66671ZM2.00004 7.33333C1.63204 7.33333 1.33337 7.632 1.33337 8V9.33333C1.33337 9.70133 1.63204 10 2.00004 10H2.11072L3.14718 16.2187C3.25451 16.8614 3.81095 17.3333 4.46228 17.3333H15.5365C16.1885 17.3333 16.7443 16.8614 16.8516 16.2187L17.8894 10H18C18.368 10 18.6667 9.70133 18.6667 9.33333V8C18.6667 7.632 18.368 7.33333 18 7.33333H2.00004ZM6.66671 10.6667C7.03471 10.6667 7.33337 10.9653 7.33337 11.3333V14.6667C7.33337 15.0347 7.03471 15.3333 6.66671 15.3333C6.29871 15.3333 6.00004 15.0347 6.00004 14.6667V11.3333C6.00004 10.9653 6.29871 10.6667 6.66671 10.6667ZM10 10.6667C10.368 10.6667 10.6667 10.9653 10.6667 11.3333V14.6667C10.6667 15.0347 10.368 15.3333 10 15.3333C9.63204 15.3333 9.33337 15.0347 9.33337 14.6667V11.3333C9.33337 10.9653 9.63204 10.6667 10 10.6667ZM13.3334 10.6667C13.7014 10.6667 14 10.9653 14 11.3333V14.6667C14 15.0347 13.7014 15.3333 13.3334 15.3333C12.9654 15.3333 12.6667 15.0347 12.6667 14.6667V11.3333C12.6667 10.9653 12.9654 10.6667 13.3334 10.6667Z" fill="white"/>
</svg>
