<svg width="43" height="43" viewBox="0 0 43 43" fill="none" xmlns="http://www.w3.org/2000/svg">
<path d="M23.3796 15.2906C22.7896 15.299 22.3004 15.3431 21.9897 15.4922C21.7125 15.6245 21.5005 15.9184 21.6286 15.9373C21.7902 15.9562 22.1535 16.0318 22.3445 16.288C22.5944 16.6197 22.586 17.363 22.586 17.363C22.586 17.363 22.7288 19.4101 22.25 19.6641C21.9246 19.8384 21.4753 19.4815 20.5137 17.8522C20.0203 17.0186 19.6465 16.0948 19.6465 16.0948C19.6465 16.0948 19.5751 15.9184 19.4471 15.8281C19.2917 15.7148 19.0754 15.6749 19.0754 15.6749H16.7722C16.7722 15.6749 16.4257 15.656 16.2976 15.8029C16.1843 15.9352 16.2872 16.1515 16.2872 16.1515C16.2872 16.1515 18.1432 20.126 20.1336 22.2571C21.5425 23.7647 22.8337 23.8235 24.1355 23.8235H25.0992C25.4981 23.8235 25.6493 23.7269 25.6493 23.5169C25.6493 22.929 25.7543 22.3558 26.2519 22.2026C26.844 22.022 27.604 23.4266 28.4082 23.9662C29.0171 24.3777 29.4811 24.2875 29.4811 24.2875L31.6332 24.2581C31.6332 24.2581 32.7607 24.1909 32.2274 23.3216C32.1833 23.2503 31.9145 22.6813 30.6254 21.5076C29.2753 20.2814 29.4559 20.4788 31.0831 18.3582C32.072 17.0669 32.4394 16.288 32.345 15.9394C32.2799 15.698 31.9019 15.7022 31.4988 15.7022C31.0957 15.7022 29.2585 15.7169 29.0759 15.7169C28.8911 15.7169 28.8953 15.7148 28.7609 15.7945C28.6308 15.8701 28.5468 16.0255 28.5468 16.0255C28.5468 16.0255 28.1625 17.0249 27.6502 17.8774C26.571 19.6704 26.1406 19.767 25.9622 19.6557C25.5527 19.3954 25.6577 18.6101 25.6577 18.0537C25.6577 16.3152 25.9265 15.5888 25.1307 15.3998C24.8683 15.3389 24.6751 15.299 24.0011 15.2906C23.7849 15.2885 23.577 15.2885 23.3796 15.2906Z" fill="white"/>
</svg>
