<svg width="21" height="21" viewBox="0 0 21 21" fill="none" xmlns="http://www.w3.org/2000/svg">
<path d="M7.52637 3.28125C5.19617 3.28125 3.28125 5.1936 3.28125 7.52637V13.4736C3.28125 15.8038 5.1936 17.7188 7.52637 17.7188H13.4736C15.8038 17.7188 17.7188 15.8064 17.7188 13.4736V7.52637C17.7188 5.19617 15.8064 3.28125 13.4736 3.28125H7.52637ZM7.52637 4.59375H13.4736C15.0963 4.59375 16.4062 5.90369 16.4062 7.52637V13.4736C16.4062 15.0963 15.0963 16.4062 13.4736 16.4062H7.52637C5.90369 16.4062 4.59375 15.0963 4.59375 13.4736V7.52637C4.59375 5.90369 5.90369 4.59375 7.52637 4.59375ZM14.376 6.0293C14.0453 6.0293 13.7812 6.29334 13.7812 6.62402C13.7812 6.95471 14.0453 7.21875 14.376 7.21875C14.7067 7.21875 14.9707 6.95471 14.9707 6.62402C14.9707 6.29334 14.7067 6.0293 14.376 6.0293ZM10.5 6.5625C8.33386 6.5625 6.5625 8.33386 6.5625 10.5C6.5625 12.6661 8.33386 14.4375 10.5 14.4375C12.6661 14.4375 14.4375 12.6661 14.4375 10.5C14.4375 8.33386 12.6661 6.5625 10.5 6.5625ZM10.5 7.875C11.9586 7.875 13.125 9.04138 13.125 10.5C13.125 11.9586 11.9586 13.125 10.5 13.125C9.04138 13.125 7.875 11.9586 7.875 10.5C7.875 9.04138 9.04138 7.875 10.5 7.875Z" fill="#7491A5" fill-opacity="0.6"/>
</svg>
