<svg width="38" height="38" viewBox="0 0 38 38" fill="none" xmlns="http://www.w3.org/2000/svg">
<path d="M9.47031 28.3813C7.09531 25.9766 5.64062 22.6516 5.64062 19C5.64062 11.6078 11.6078 5.64062 19 5.64062C26.3922 5.64062 32.3594 11.6078 32.3594 19C32.3594 26.3922 26.3922 32.3594 19 32.3594H5.64062L9.47031 28.3813Z" fill="white"/>
<path d="M23.4531 8.60938C23.4531 5.34375 26.125 2.67188 29.3906 2.67188C30.9344 2.67188 32.3594 3.26563 33.3984 4.24531C33.5172 4.36406 33.1906 4.54219 33.1313 4.72031C33.1016 4.89844 33.3391 5.10625 33.4281 5.225C33.5469 5.37344 33.8734 5.7 34.1406 5.75937C34.3188 5.78906 34.4672 5.55156 34.4969 5.64062C35.0016 6.50156 35.2984 7.54063 35.2984 8.60938C35.2984 11.875 32.6266 14.5469 29.3609 14.5469C26.0953 14.5469 23.4531 11.875 23.4531 8.60938Z" fill="#E23936"/>
<path d="M33.3963 4.24609L29.4182 8.69922L27.9932 6.85859C27.6963 6.47266 27.1323 6.41328 26.7463 6.71016C26.3604 7.00703 26.301 7.57109 26.5979 7.95703L28.676 10.6289C28.8245 10.8367 29.0917 10.9555 29.3588 10.9852H29.3885C29.6557 10.9852 29.8932 10.8664 30.0417 10.6883L34.5245 5.64141C34.2276 5.13672 33.8417 4.66172 33.3963 4.24609Z" fill="white"/>
<path d="M19.0015 33.25H5.6421C5.28585 33.25 4.95929 33.0422 4.81085 32.7156C4.66241 32.3891 4.75148 32.0031 4.98898 31.7359L8.2546 28.3516C5.99835 25.7687 4.75148 22.4734 4.75148 19C4.75148 11.1328 11.1343 4.75 19.0015 4.75C19.3874 4.75 19.7437 4.75 20.1296 4.77969C20.6343 4.80938 20.9905 5.25469 20.9609 5.72969C20.9312 6.23437 20.4859 6.59063 20.0109 6.56094C19.6546 6.53125 19.328 6.53125 19.0015 6.53125C12.114 6.53125 6.53273 12.1125 6.53273 19C6.53273 22.2953 7.80929 25.4125 10.1249 27.7578C10.4515 28.1141 10.4812 28.6484 10.1249 29.0047L7.74991 31.4688H19.0015C25.889 31.4688 31.4702 25.8875 31.4702 19C31.4702 18.6734 31.4702 18.3469 31.4405 18.0203C31.4109 17.5156 31.7671 17.1 32.2718 17.0703C32.7468 17.0406 33.1921 17.3969 33.2218 17.9016C33.2515 18.2578 33.2515 18.6438 33.2515 19C33.2515 26.8672 26.8687 33.25 19.0015 33.25Z" fill="#444B54"/>
<path d="M24.0469 17.2188H13.9531C13.4484 17.2188 13.0625 16.8328 13.0625 16.3281C13.0625 15.8234 13.4484 15.4375 13.9531 15.4375H24.0469C24.5516 15.4375 24.9375 15.8234 24.9375 16.3281C24.9375 16.8328 24.5516 17.2188 24.0469 17.2188ZM19.5938 22.5625H13.9531C13.4484 22.5625 13.0625 22.1766 13.0625 21.6719C13.0625 21.1672 13.4484 20.7812 13.9531 20.7812H19.5938C20.0984 20.7812 20.4844 21.1672 20.4844 21.6719C20.4844 22.1766 20.0984 22.5625 19.5938 22.5625Z" fill="#D3D8DD"/>
<path d="M24.3438 22.5625H24.0469C23.5422 22.5625 23.1562 22.1766 23.1562 21.6719C23.1562 21.1672 23.5422 20.7812 24.0469 20.7812H24.3438C24.8484 20.7812 25.2344 21.1672 25.2344 21.6719C25.2344 22.1766 24.8484 22.5625 24.3438 22.5625Z" fill="#D3D8DD"/>
</svg>
