<svg width="97" height="97" viewBox="0 0 97 97" fill="none" xmlns="http://www.w3.org/2000/svg">
<path d="M77.2969 62.1406C73.2772 62.1406 69.4221 63.7374 66.5798 66.5798C63.7374 69.4221 62.1406 73.2772 62.1406 77.2969C62.1406 81.3166 63.7374 85.1716 66.5798 88.014C69.4221 90.8563 73.2772 92.4531 77.2969 92.4531C81.3166 92.4531 85.1716 90.8563 88.014 88.014C90.8563 85.1716 92.4531 81.3166 92.4531 77.2969C92.4531 73.2772 90.8563 69.4221 88.014 66.5798C85.1716 63.7374 81.3166 62.1406 77.2969 62.1406Z" fill="#71C2FF"/>
<path d="M82.6016 75.0234H79.5703V71.9922C79.5703 70.7039 78.5852 69.7188 77.2969 69.7188C76.0086 69.7188 75.0234 70.7039 75.0234 71.9922V75.0234H71.9922C70.7039 75.0234 69.7188 76.0086 69.7188 77.2969C69.7188 78.5852 70.7039 79.5703 71.9922 79.5703H75.0234V82.6016C75.0234 83.8898 76.0086 84.875 77.2969 84.875C78.5852 84.875 79.5703 83.8898 79.5703 82.6016V79.5703H82.6016C83.8898 79.5703 84.875 78.5852 84.875 77.2969C84.875 76.0086 83.8898 75.0234 82.6016 75.0234Z" fill="white"/>
<path d="M48.5 88.6641C26.3719 88.6641 8.33594 70.6281 8.33594 48.5C8.33594 26.3719 26.3719 8.33594 48.5 8.33594C70.6281 8.33594 88.6641 26.3719 88.6641 48.5C88.6641 49.7125 88.5883 51.0008 88.5125 52.2133C88.3609 53.4258 87.3 54.4109 86.0117 54.2594C84.7992 54.1078 83.8141 53.0469 83.9656 51.7586C84.0414 50.6977 84.1172 49.5609 84.1172 48.5C84.1172 28.8727 68.1273 12.8828 48.5 12.8828C28.8727 12.8828 12.8828 28.8727 12.8828 48.5C12.8828 68.1273 28.8727 84.1172 48.5 84.1172C49.6367 84.1172 50.7734 84.0414 51.9102 83.9656C53.1227 83.8141 54.2594 84.7992 54.4109 86.0117C54.5625 87.2242 53.5773 88.3609 52.3648 88.5125C51.0766 88.5883 49.7883 88.6641 48.5 88.6641Z" fill="#444B54"/>
<path d="M67.4453 46.2266H55.6992C54.9414 43.8773 53.1227 41.9828 50.7734 41.3008V21.9766C50.7734 20.6883 49.7883 19.7031 48.5 19.7031C47.2117 19.7031 46.2266 20.6883 46.2266 21.9766V41.3008C43.1195 42.2859 40.9219 45.1656 40.9219 48.5C40.9219 52.668 44.332 56.0781 48.5 56.0781C51.9102 56.0781 54.7898 53.8805 55.6992 50.7734H67.4453C68.7336 50.7734 69.7188 49.7883 69.7188 48.5C69.7188 47.2117 68.7336 46.2266 67.4453 46.2266ZM48.5 51.5312C46.8328 51.5312 45.4688 50.1672 45.4688 48.5C45.4688 46.8328 46.8328 45.4688 48.5 45.4688C50.1672 45.4688 51.5312 46.8328 51.5312 48.5C51.5312 50.1672 50.1672 51.5312 48.5 51.5312Z" fill="#444B54"/>
</svg>
