<svg width="97" height="97" viewBox="0 0 97 97" fill="none" xmlns="http://www.w3.org/2000/svg">
<path d="M48.5 92.4531C24.25 92.4531 4.54688 72.75 4.54688 48.5C4.54688 24.25 24.25 4.54688 48.5 4.54688C72.75 4.54688 92.4531 24.25 92.4531 48.5C92.4531 72.75 72.75 92.4531 48.5 92.4531ZM48.5 9.09375C26.7508 9.09375 9.09375 26.7508 9.09375 48.5C9.09375 70.2492 26.7508 87.9062 48.5 87.9062C70.2492 87.9062 87.9062 70.2492 87.9062 48.5C87.9062 26.7508 70.2492 9.09375 48.5 9.09375Z" fill="#444B54"/>
<path d="M46.9832 59.8668C46.377 59.8668 45.7707 59.5637 45.316 59.109L35.3887 48.4996C34.5551 47.5903 34.5551 46.1504 35.5402 45.3168C36.4496 44.4832 37.8895 44.4832 38.7231 45.4684L46.9832 54.259L62.8215 37.7387C63.6551 36.8293 65.0949 36.8293 66.0043 37.6629C66.9137 38.4965 66.9137 39.9363 66.0801 40.8457L48.6504 59.1848C48.1957 59.6395 47.5895 59.8668 46.9832 59.8668Z" fill="#71C2FF"/>
</svg>
