<svg width="97" height="97" viewBox="0 0 97 97" fill="none" xmlns="http://www.w3.org/2000/svg">
<path d="M48.5 87.9074C48.1211 87.9074 47.6664 87.8316 47.3633 87.6043C27.6602 75.934 15.9141 55.3215 15.9141 32.5113V21.0684C15.9141 20.0832 16.5203 19.2496 17.4297 18.9465L47.7422 7.73086C48.2727 7.5793 48.8031 7.5793 49.3336 7.73086L79.5703 18.9465C80.4797 19.2496 81.0859 20.159 81.0859 21.0684V32.5113C81.0859 55.3215 69.3398 75.934 49.6367 87.6043C49.3336 87.8316 48.8789 87.9074 48.5 87.9074ZM20.4609 22.6598V32.5113C20.4609 53.2754 30.9187 71.9934 48.5 82.9816C66.0812 72.0691 76.5391 53.2754 76.5391 32.5113V22.6598L48.5 12.2777L20.4609 22.6598Z" fill="#444B54"/>
<path d="M48.501 76.9941C48.0463 76.9941 47.5158 76.8426 47.1369 76.5394C35.0877 67.673 27.4338 54.5629 25.4635 39.7855C25.3119 38.573 26.1455 37.4363 27.4338 37.209C28.6463 37.0574 29.783 37.891 30.0103 39.1793C31.7533 52.1379 38.2705 63.6566 48.501 71.7652C60.5502 62.2168 67.4463 47.9699 67.4463 32.4348V28.9488L48.501 21.977L28.04 29.5551C26.8275 30.0098 25.5392 29.4035 25.0846 28.191C24.6299 26.9785 25.2361 25.6902 26.4486 25.2355L47.7432 17.4301C48.2736 17.2785 48.8041 17.2785 49.3346 17.4301L70.5533 25.3113C71.4627 25.6145 72.0689 26.5238 72.0689 27.4332V32.5105C72.0689 50.0918 64.0361 66.1574 49.9408 76.5394C49.4861 76.8426 48.9557 76.9941 48.501 76.9941Z" fill="#71C2FF"/>
<path d="M48.5 19.5508V74.7195C61.9133 64.7922 69.7188 49.4086 69.7188 32.5094V27.432L48.5 19.5508Z" fill="#71C2FF"/>
</svg>
