<svg width="37" height="38" viewBox="0 0 37 38" fill="none" xmlns="http://www.w3.org/2000/svg">
<path d="M18.038 24.8765C17.5755 24.4312 16.8528 24.3718 16.2747 24.7281L15.7544 25.0547L14.2513 26.0343C13.6731 26.4203 12.9216 26.2718 12.5747 25.7375L10.4067 22.264L8.26768 18.8203C7.9208 18.2859 8.12315 17.514 8.70127 17.1281L10.2044 16.1484L10.7247 15.8218C11.3028 15.4359 11.563 14.7234 11.3606 14.1297L9.04815 7.71715C8.78799 6.97497 7.9208 6.64841 7.14033 7.03434L6.9669 7.12341L4.16299 8.66716C2.8333 9.34997 1.96612 10.7453 2.05283 12.1703C2.22627 15.0203 3.12237 20.1859 6.15752 25.0547C9.19268 29.9234 13.4419 32.9812 15.8989 34.3468C17.1419 35.0297 18.7317 34.8218 19.888 33.8718L22.4317 31.8828L22.5763 31.764C23.2411 31.2297 23.3278 30.2797 22.7497 29.7156L18.038 24.8765Z" fill="#E23936"/>
<path d="M9.45283 8.84528L9.04815 7.71715C8.78799 6.97497 7.9208 6.64841 7.14033 7.03434L6.9669 7.1234L4.16299 8.66716C2.8333 9.34997 1.96612 10.7453 2.05283 12.1703C2.13955 13.714 2.45752 15.9109 3.18018 18.375C3.93174 15.4359 5.6083 11.6062 9.45283 8.84528Z" fill="white"/>
<path d="M17.4886 35.6242C16.7949 35.6242 16.1011 35.4461 15.4941 35.1195C14.0488 34.318 9.01909 31.2602 5.43472 25.5305C1.99487 20.0383 1.33003 14.3977 1.1855 12.2305C1.06987 10.4492 2.1105 8.69766 3.75816 7.86641L6.76441 6.23359C7.08237 6.05547 7.45816 5.99609 7.80503 5.99609C8.73003 5.99609 9.53941 6.56016 9.85737 7.42109L12.141 13.8039C12.4878 14.8133 12.0832 15.9711 11.1582 16.5648L9.13472 17.9008C9.048 17.9602 8.96128 18.0789 8.93237 18.168C8.90347 18.2273 8.93237 18.2867 8.96128 18.3461L13.2972 25.293C13.355 25.382 13.4707 25.4117 13.5285 25.4117C13.5863 25.4117 13.673 25.4117 13.7597 25.3227L15.7832 23.9867C16.1878 23.7195 16.6214 23.6008 17.0839 23.6008C17.691 23.6008 18.2402 23.8383 18.6449 24.2539L23.3566 29.0633C23.7902 29.5086 23.9925 30.0727 23.9636 30.7258C23.9347 31.3789 23.6168 32.032 23.0964 32.4477L22.9519 32.5664L20.4082 34.5852C19.5988 35.2383 18.5582 35.6242 17.4886 35.6242ZM7.80503 7.77734C7.71831 7.77734 7.60269 7.80703 7.51597 7.83672L7.34253 7.92578L4.53862 9.43984C3.498 9.97422 2.83316 11.043 2.89097 12.1117C3.00659 14.1305 3.64253 19.4148 6.85113 24.5805C10.2043 29.9242 14.916 32.8039 16.2746 33.5461C16.6214 33.7539 17.0261 33.843 17.4597 33.843C18.1246 33.843 18.7894 33.6055 19.3097 33.1602L21.998 31.0227C22.1425 30.9039 22.2292 30.7555 22.2292 30.5773C22.2292 30.4883 22.2292 30.3695 22.1136 30.2805L17.4308 25.5008C17.2863 25.3523 16.9683 25.3227 16.7371 25.4711L14.7136 26.807C14.3667 27.0445 13.9621 27.1633 13.5285 27.1633C12.8347 27.1633 12.1988 26.807 11.8519 26.243L7.51597 19.2961C7.22691 18.8508 7.14019 18.3164 7.25581 17.782C7.37144 17.218 7.71831 16.7133 8.20972 16.3867L10.2332 15.0508C10.4644 14.9023 10.58 14.6352 10.4933 14.3977L8.23862 8.01484C8.18081 7.83672 7.97847 7.77734 7.80503 7.77734Z" fill="#444B54"/>
<path d="M33.5312 10.9556C33.4734 15.8541 29.4555 19.7134 24.7148 19.7134H17.0836C16.65 19.7134 16.332 19.3572 16.332 18.9119V10.9853C16.332 6.08688 20.0898 1.96032 24.8016 1.87126C29.6578 1.84157 33.618 5.90876 33.5312 10.9556Z" fill="white"/>
<path d="M24.7437 20.6022H17.0836C16.1875 20.6022 15.4648 19.86 15.4648 18.91V11.0131C15.4648 5.58032 19.6563 1.09751 24.8016 1.00845C27.3742 0.978762 29.8023 1.98814 31.6234 3.85845C33.4734 5.75845 34.4562 8.28189 34.4273 10.9538C34.3406 16.2678 29.9758 20.6022 24.7437 20.6022ZM17.1703 18.8209H24.7148C29.0219 18.8209 32.6063 15.2881 32.6641 10.9241C32.693 8.7272 31.8836 6.64907 30.3805 5.10532C28.8773 3.56157 26.9117 2.76001 24.8016 2.7897C20.6102 2.84907 17.1703 6.56001 17.1703 11.0131V18.8209Z" fill="#444B54"/>
<path d="M24.7422 13.7734H20.8977C20.4063 13.7734 20.0305 13.3875 20.0305 12.8828C20.0305 12.3781 20.4063 11.9922 20.8977 11.9922H24.7133C25.2047 11.9922 25.5805 12.3781 25.5805 12.8828C25.5805 13.3875 25.2047 13.7734 24.7422 13.7734ZM28.2109 13.7734H28.1531C27.6617 13.7734 27.2859 13.3875 27.2859 12.8828C27.2859 12.3781 27.6617 11.9922 28.1531 11.9922H28.2109C28.7023 11.9922 29.0781 12.3781 29.0781 12.8828C29.0781 13.3875 28.6734 13.7734 28.2109 13.7734ZM28.5 10.8047H20.8398C20.3484 10.8047 19.9727 10.4188 19.9727 9.91406C19.9727 9.40938 20.3484 9.02344 20.8398 9.02344H28.5C28.9914 9.02344 29.3672 9.40938 29.3672 9.91406C29.3672 10.4188 28.9625 10.8047 28.5 10.8047Z" fill="#9EB9D3"/>
</svg>
