<svg width="83" height="83" viewBox="0 0 83 83" fill="none" xmlns="http://www.w3.org/2000/svg">
<path d="M41.5 75.8672C22.5656 75.8672 7.13281 60.4344 7.13281 41.5C7.13281 22.5656 22.5656 7.13281 41.5 7.13281C60.4344 7.13281 75.8672 22.5656 75.8672 41.5C75.8672 60.4344 60.4344 75.8672 41.5 75.8672ZM41.5 11.0234C24.7055 11.0234 11.0234 24.7055 11.0234 41.5C11.0234 58.2945 24.7055 71.9766 41.5 71.9766C58.2945 71.9766 71.9766 58.2945 71.9766 41.5C71.9766 24.7055 58.2945 11.0234 41.5 11.0234Z" fill="white"/>
<path d="M36.6367 53.1713C36.3125 53.1713 35.9883 53.1064 35.6641 52.9119C35.0805 52.5877 34.6914 51.9393 34.6914 51.226V31.7729C34.6914 31.0596 35.0805 30.4111 35.6641 30.0869C36.2477 29.7627 37.0258 29.7627 37.6094 30.0869L54.4688 39.8135C55.0523 40.1377 55.4414 40.7861 55.4414 41.4994C55.4414 42.2127 55.0523 42.8611 54.4688 43.1853L37.6094 52.9119C37.2852 53.1064 36.9609 53.1713 36.6367 53.1713ZM38.582 35.1447V47.8541L49.6055 41.4994L38.582 35.1447Z" fill="white"/>
</svg>
