<svg width="202" height="202" viewBox="0 0 202 202" fill="none" xmlns="http://www.w3.org/2000/svg">
<path d="M101 22.0938C80.0728 22.0938 60.0026 30.4071 45.2049 45.2049C30.4071 60.0026 22.0938 80.0728 22.0938 101C22.0938 121.927 30.4071 141.997 45.2049 156.795C60.0026 171.593 80.0728 179.906 101 179.906C121.927 179.906 141.997 171.593 156.795 156.795C171.593 141.997 179.906 121.927 179.906 101C179.906 80.0728 171.593 60.0026 156.795 45.2049C141.997 30.4071 121.927 22.0938 101 22.0938Z" fill="white" fill-opacity="0.54"/>
<path d="M101 184.641C54.9187 184.641 17.3594 147.081 17.3594 101C17.3594 54.9187 54.9187 17.3594 101 17.3594C147.081 17.3594 184.641 54.9187 184.641 101C184.641 147.081 147.081 184.641 101 184.641ZM101 26.8281C60.1266 26.8281 26.8281 60.1266 26.8281 101C26.8281 141.873 60.1266 175.172 101 175.172C141.873 175.172 175.172 141.873 175.172 101C175.172 60.1266 141.873 26.8281 101 26.8281Z" fill="#E2EEF6"/>
<path d="M89.1641 129.406C88.375 129.406 87.5859 129.248 86.7969 128.775C85.3766 127.986 84.4297 126.407 84.4297 124.671V77.3277C84.4297 75.5918 85.3766 74.0137 86.7969 73.2246C88.2172 72.4355 90.1109 72.4355 91.5312 73.2246L132.562 96.8965C133.983 97.6855 134.93 99.2637 134.93 101C134.93 102.736 133.983 104.314 132.562 105.103L91.5312 128.775C90.7422 129.248 89.9531 129.406 89.1641 129.406ZM93.8984 85.534V116.465L120.727 101L93.8984 85.534Z" fill="#E23936"/>
</svg>
