<svg width="47" height="47" viewBox="0 0 47 47" fill="none" xmlns="http://www.w3.org/2000/svg">
<path d="M35.9109 16.376C38.0039 12.7408 36.6453 8.07755 32.8633 6.16817C29.4117 4.40567 25.1156 5.69083 23.1695 9.06895C21.9578 11.1619 21.9211 13.5486 22.7656 15.6049C23.5367 17.4408 23.0594 19.5338 21.5172 20.7822L21.4805 20.819L27.2086 24.1236V23.9768C27.3187 21.994 28.7508 20.3416 30.7336 20.0111C32.8266 19.6072 34.7359 18.3588 35.9109 16.376Z" fill="#D1E8FA"/>
<path d="M27.4656 9.1053C27.025 9.1053 26.6211 8.84827 26.4375 8.44436C26.1804 7.89358 26.4375 7.23264 27.025 7.01233C28.0898 6.53499 29.3015 6.38811 30.4398 6.53499C31.0273 6.60842 31.4679 7.15921 31.3945 7.78342C31.3211 8.37093 30.7703 8.81155 30.1461 8.73811C29.4117 8.62796 28.6406 8.73811 27.9062 9.03186C27.7593 9.1053 27.6125 9.1053 27.4656 9.1053ZM25.0789 11.235C24.8953 11.235 24.7484 11.1983 24.6015 11.1248C24.0508 10.8678 23.8304 10.2069 24.1242 9.65608C24.3078 9.28889 24.7117 9.03186 25.1156 9.03186C25.7398 9.03186 26.2172 9.50921 26.2172 10.1334C26.2172 10.3537 26.1437 10.5373 26.0703 10.7209C25.8133 11.0514 25.4461 11.235 25.0789 11.235Z" fill="white"/>
<path d="M24.9321 24.7113C24.8219 24.7113 24.6751 24.6746 24.5649 24.6378C23.9774 24.4175 23.6836 23.7933 23.904 23.2425L24.5282 21.5168C25.2258 19.5707 26.6211 18.0285 28.3836 17.2207C28.9711 16.9636 29.5586 16.78 30.1829 16.6699C31.3946 16.4863 32.4227 15.7519 33.0102 14.7238C33.304 14.2097 34.0016 14.0261 34.5157 14.3199C35.0297 14.6136 35.2133 15.3113 34.9196 15.8253C33.9649 17.441 32.386 18.5425 30.5133 18.873C30.0727 18.9464 29.6688 19.0566 29.2649 19.2402C28.0532 19.791 27.0618 20.8925 26.5844 22.2511L25.9602 23.9769C25.8133 24.4543 25.3727 24.7113 24.9321 24.7113Z" fill="#86A5BE"/>
<path d="M30.5133 32.35L12.7047 22.0687C11.6399 21.4445 11.2727 20.1226 11.8969 19.0578C12.5211 17.9929 13.843 17.6257 14.9079 18.25L19.5344 20.9304L32.7165 28.5312C33.7813 29.1554 34.1485 30.4773 33.5243 31.5421C32.9001 32.607 31.5415 32.9375 30.5133 32.35Z" fill="#D1E8FA"/>
<path d="M32.6064 28.4945L30.4767 27.246C29.4119 26.6218 28.09 26.989 27.4658 28.0539C26.8416 29.1187 27.2087 30.4406 28.2736 31.0648L30.5134 32.35C31.5783 32.9742 32.9736 32.5703 33.5611 31.4687C34.1119 30.4039 33.6712 29.082 32.6064 28.4945Z" fill="#86A5BE"/>
<path d="M37.6368 10.3199C36.9758 8.08004 35.4337 6.2441 33.3407 5.17926C29.4118 3.19644 24.418 4.66519 22.2149 8.48394C20.893 10.7972 20.7094 13.5511 21.7743 16.0113C22.1415 16.8558 22.1415 17.8105 21.811 18.6183C21.5907 19.1691 21.8477 19.83 22.4352 20.0503C22.986 20.2707 23.6469 20.0136 23.8672 19.4261C24.418 18.0675 24.3813 16.5254 23.7938 15.13C23.0227 13.2941 23.1329 11.2746 24.1243 9.58551C25.7399 6.75816 29.4485 5.6566 32.3493 7.12535C33.8915 7.89644 35.0297 9.25504 35.5071 10.9074C35.9844 12.5597 35.8008 14.3222 34.9196 15.791C33.9649 17.4066 32.386 18.5082 30.5133 18.8386C28.2001 19.2058 26.4376 21.1152 26.1071 23.4652L15.4586 17.2964C13.8797 16.3785 11.8602 16.9293 10.9422 18.5082C10.5016 19.2793 10.3915 20.1605 10.6118 21.005C10.8321 21.8496 11.3829 22.5839 12.154 23.0246L16.1563 25.3379C16.0094 25.3746 15.8993 25.3746 15.7524 25.4113C13.586 25.9988 11.7501 27.3941 10.6118 29.3402C8.29849 33.3793 9.65708 38.5566 13.6961 40.8699C15.018 41.641 16.4868 42.0082 17.9188 42.0082C20.8563 42.0082 23.6837 40.5027 25.2626 37.7855C26.511 35.6558 26.6946 33.1957 25.9969 30.9925L29.9626 33.3058C30.4766 33.5996 31.0641 33.7464 31.6149 33.7464C32.7532 33.7464 33.8547 33.1589 34.479 32.0941C35.3969 30.5152 34.8462 28.4957 33.2672 27.5777L28.2735 24.7136L28.3102 24.016C28.3837 22.5472 29.4852 21.2988 30.9172 21.0785C33.4141 20.6746 35.5805 19.1691 36.8657 16.966C38.004 14.9097 38.2977 12.5597 37.6368 10.3199ZM23.3165 36.6839C21.5907 39.6582 17.7719 40.6863 14.7977 38.9605C11.8235 37.2347 10.7954 33.416 12.5211 30.4418C13.6594 28.4589 15.7891 27.3207 17.9555 27.3207C18.1758 27.3207 18.3594 27.3207 18.5797 27.3574C18.5063 27.4308 18.4696 27.5043 18.3961 27.5777C18.1024 28.0918 18.286 28.7894 18.8001 29.0832L21.0399 30.3683C21.2235 30.4785 21.4071 30.5152 21.5907 30.5152C21.9579 30.5152 22.3251 30.3316 22.5454 29.9644C22.6188 29.8175 22.6555 29.6707 22.6922 29.5238C24.3446 31.4699 24.6751 34.3339 23.3165 36.6839ZM32.5696 30.9925C32.4227 31.2496 32.2024 31.4332 31.9087 31.5066C31.6149 31.58 31.3212 31.5433 31.0641 31.3964L13.2555 21.1152C12.9985 20.9683 12.8149 20.748 12.7415 20.4543C12.668 20.1605 12.7047 19.8668 12.8516 19.6097C13.1454 19.0957 13.843 18.9121 14.3571 19.2058L32.1657 29.4871C32.6797 29.7808 32.8633 30.4418 32.5696 30.9925Z" fill="#444B54"/>
</svg>
