<svg width="46" height="46" viewBox="0 0 46 46" fill="none" xmlns="http://www.w3.org/2000/svg">
<g clip-path="url(#clip0)">
<path d="M37.375 44.5625H8.625V14.0156C8.625 10.0625 11.8594 6.82812 15.8125 6.82812H30.1875C34.1406 6.82812 37.375 10.0625 37.375 14.0156V44.5625Z" fill="#EDEDED"/>
<path d="M10.4219 41.6875V29.2891C10.4219 26.8094 8.40938 24.7969 5.92969 24.7969C3.45 24.7969 1.4375 26.8094 1.4375 29.2891C1.4375 31.7688 3.45 33.7812 5.92969 33.7812H6.10938V44.5625H10.4219V41.6875ZM35.5781 41.6875V29.2891C35.5781 26.8094 37.5906 24.7969 40.0703 24.7969C42.55 24.7969 44.5625 26.8094 44.5625 29.2891C44.5625 31.7688 42.55 33.7812 40.0703 33.7812H39.8906V44.5625H35.5781V41.6875Z" fill="#EDEDED"/>
<path d="M35.5781 42.0484H17.6094C16.9984 42.0484 16.5312 41.5812 16.5312 40.9703C16.5312 40.3593 16.9984 39.8922 17.6094 39.8922H35.5781C36.1891 39.8922 36.6562 40.3593 36.6562 40.9703C36.6562 41.5812 36.1891 42.0484 35.5781 42.0484ZM31.2297 13.6218L31.5891 15.9937C32.3078 20.6296 28.2109 24.5468 23.6109 23.6125L16.2078 22.139C14.5547 21.8156 12.7938 22.1031 11.3922 23.0734C10.9609 23.3609 10.6016 23.6843 10.2422 24.0796L10.4219 31.6265H35.5781V27.6734C35.5781 26.6671 36.3687 25.5171 37.375 25.5171V25.8765V14.0171C37.375 13.4421 37.3031 12.9031 37.1953 12.364C36.2969 8.62652 30.6547 9.81246 31.2297 13.6218Z" fill="#D1E8FA"/>
<path d="M10.4219 45.6406C9.81094 45.6406 9.34375 45.1734 9.34375 44.5625V41.6875C9.34375 41.0766 9.81094 40.6094 10.4219 40.6094C11.0328 40.6094 11.5 41.0766 11.5 41.6875V44.5625C11.5 45.1734 11.0328 45.6406 10.4219 45.6406Z" fill="#444B54"/>
<path d="M6.10938 45.6406C5.49844 45.6406 5.03125 45.1734 5.03125 44.5625V34.7875C2.37188 34.3563 0.359375 32.0562 0.359375 29.2891C0.359375 26.2344 2.875 23.7188 5.92969 23.7188C8.98438 23.7188 11.5 26.2344 11.5 29.2891V41.6875C11.5 42.2984 11.0328 42.7656 10.4219 42.7656C9.81094 42.7656 9.34375 42.2984 9.34375 41.6875V29.2891C9.34375 27.4203 7.79844 25.875 5.92969 25.875C4.06094 25.875 2.51562 27.4203 2.51562 29.2891C2.51562 31.1578 4.06094 32.7031 5.92969 32.7031H6.10938C6.72031 32.7031 7.1875 33.1703 7.1875 33.7812V44.5625C7.1875 45.1734 6.72031 45.6406 6.10938 45.6406ZM35.5781 39.8906H14.0156C13.4047 39.8906 12.9375 39.4234 12.9375 38.8125C12.9375 38.2016 13.4047 37.7344 14.0156 37.7344H34.5V35.2188C34.5 33.8172 33.3859 32.7031 31.9844 32.7031H14.0156C13.4047 32.7031 12.9375 32.2359 12.9375 31.625C12.9375 31.0141 13.4047 30.5469 14.0156 30.5469H31.9844C34.5719 30.5469 36.6562 32.6313 36.6562 35.2188V38.8125C36.6562 39.4234 36.1891 39.8906 35.5781 39.8906Z" fill="#444B54"/>
<path d="M23 16.1719C22.6188 16.1719 22.2531 16.3233 21.9835 16.5929C21.714 16.8625 21.5625 17.2281 21.5625 17.6094C21.5625 17.9906 21.714 18.3563 21.9835 18.6258C22.2531 18.8954 22.6188 19.0469 23 19.0469C23.3812 19.0469 23.7469 18.8954 24.0165 18.6258C24.2861 18.3563 24.4375 17.9906 24.4375 17.6094C24.4375 17.2281 24.2861 16.8625 24.0165 16.5929C23.7469 16.3233 23.3812 16.1719 23 16.1719ZM40.0703 28.3906C39.7844 28.3906 39.5102 28.5042 39.308 28.7064C39.1058 28.9086 38.9922 29.1828 38.9922 29.4688C38.9922 29.7547 39.1058 30.0289 39.308 30.2311C39.5102 30.4333 39.7844 30.5469 40.0703 30.5469C40.3563 30.5469 40.6305 30.4333 40.8327 30.2311C41.0349 30.0289 41.1484 29.7547 41.1484 29.4688C41.1484 29.1828 41.0349 28.9086 40.8327 28.7064C40.6305 28.5042 40.3563 28.3906 40.0703 28.3906ZM5.92969 28.3906C5.64375 28.3906 5.36953 28.5042 5.16734 28.7064C4.96515 28.9086 4.85156 29.1828 4.85156 29.4688C4.85156 29.7547 4.96515 30.0289 5.16734 30.2311C5.36953 30.4333 5.64375 30.5469 5.92969 30.5469C6.21562 30.5469 6.48985 30.4333 6.69204 30.2311C6.89422 30.0289 7.00781 29.7547 7.00781 29.4688C7.00781 29.1828 6.89422 28.9086 6.69204 28.7064C6.48985 28.5042 6.21562 28.3906 5.92969 28.3906Z" fill="white"/>
<path d="M37.375 26.5938C36.7641 26.5938 36.2969 26.1266 36.2969 25.5156V14.0156C36.2969 10.6375 33.5656 7.90625 30.1875 7.90625H15.8125C12.4344 7.90625 9.70312 10.6375 9.70312 14.0156V21.9219C9.70312 22.5328 9.23594 23 8.625 23C8.01406 23 7.54688 22.5328 7.54688 21.9219V14.0156C7.54688 9.45156 11.2484 5.75 15.8125 5.75H30.1875C34.7516 5.75 38.4531 9.45156 38.4531 14.0156V25.5156C38.4531 26.1266 37.9859 26.5938 37.375 26.5938ZM35.5781 45.6406C34.9672 45.6406 34.5 45.1734 34.5 44.5625V41.6875C34.5 41.0766 34.9672 40.6094 35.5781 40.6094C36.1891 40.6094 36.6562 41.0766 36.6562 41.6875V44.5625C36.6562 45.1734 36.1891 45.6406 35.5781 45.6406Z" fill="#444B54"/>
<path d="M39.8906 45.6406C39.2797 45.6406 38.8125 45.1734 38.8125 44.5625V33.7812C38.8125 33.1703 39.2797 32.7031 39.8906 32.7031H40.0703C41.9391 32.7031 43.4844 31.1578 43.4844 29.2891C43.4844 27.4203 41.9391 25.875 40.0703 25.875C38.2016 25.875 36.6562 27.4203 36.6562 29.2891V41.6875C36.6562 42.2984 36.1891 42.7656 35.5781 42.7656C34.9672 42.7656 34.5 42.2984 34.5 41.6875V29.2891C34.5 26.2344 37.0156 23.7188 40.0703 23.7188C43.125 23.7188 45.6406 26.2344 45.6406 29.2891C45.6406 32.0562 43.6281 34.3563 40.9688 34.7875V44.5625C40.9688 45.1734 40.5016 45.6406 39.8906 45.6406Z" fill="#444B54"/>
<path d="M41.6875 45.641H6.10938C5.49844 45.641 5.03125 45.1738 5.03125 44.5629C5.03125 43.952 5.49844 43.4848 6.10938 43.4848H41.6875C42.2984 43.4848 42.7656 43.952 42.7656 44.5629C42.7656 45.1738 42.2984 45.641 41.6875 45.641ZM44.9219 45.641C44.85 45.641 44.7781 45.641 44.7062 45.6051C44.6344 45.6051 44.5625 45.5691 44.4906 45.5332C44.4188 45.4973 44.3828 45.4613 44.3109 45.4254C44.2391 45.3895 44.2031 45.3535 44.1313 45.2816C44.0953 45.2457 44.0234 45.1738 43.9875 45.1379C43.9516 45.066 43.9156 45.0301 43.8797 44.9582C43.8438 44.8863 43.8438 44.8145 43.8078 44.7426C43.8078 44.6707 43.7719 44.5988 43.7719 44.527C43.7719 44.2395 43.8797 43.952 44.0953 43.7723C44.1312 43.7363 44.2031 43.6645 44.275 43.6285C44.3469 43.5926 44.3828 43.5566 44.4547 43.5207C44.5266 43.4848 44.5984 43.4848 44.6703 43.4488C44.8141 43.4129 44.9578 43.4129 45.1016 43.4488C45.1734 43.4488 45.2453 43.4848 45.3172 43.5207C45.3891 43.5566 45.4609 43.5926 45.4969 43.6285C45.5687 43.6645 45.6047 43.7004 45.6766 43.7723C45.7125 43.8082 45.7844 43.8801 45.8203 43.952C45.8563 44.0238 45.8922 44.0598 45.9281 44.1316C45.9641 44.2035 45.9641 44.2754 46 44.3473C46 44.4191 46.0359 44.491 46.0359 44.5629C46.0359 44.6348 46.0359 44.7066 46 44.7785C46 44.8504 45.9641 44.9223 45.9281 44.9941C45.8922 45.066 45.8563 45.1379 45.8203 45.1738C45.7844 45.2457 45.7484 45.2816 45.6766 45.3176C45.6406 45.3535 45.5687 45.4254 45.4969 45.4613C45.425 45.4973 45.3891 45.5332 45.3172 45.5691C45.2453 45.6051 45.1734 45.6051 45.1016 45.641C45.0656 45.641 44.9938 45.641 44.9219 45.641Z" fill="#444B54"/>
</g>
<defs>
<clipPath id="clip0">
<rect width="46" height="46" fill="white"/>
</clipPath>
</defs>
</svg>
