<svg width="47" height="47" viewBox="0 0 47 47" fill="none" xmlns="http://www.w3.org/2000/svg">
<path d="M31.4312 16.8906H15.6422C12.8516 16.8906 10.5016 18.9836 10.1711 21.7375L9.17969 30.1094H37.8203L36.9023 21.7742C36.5719 18.9836 34.2219 16.8906 31.4312 16.8906Z" fill="white"/>
<path d="M31.4313 16.8906H23.5735V30.1094H37.8204L36.9024 21.7742C36.5719 18.9836 34.2219 16.8906 31.4313 16.8906Z" fill="#E9EEF4"/>
<path d="M9.17969 27.1719H37.8203V40.3906H9.17969V27.1719Z" fill="#D1E8FA"/>
<path d="M23.5 40.1711H37.8203V27.6867L23.5 26.5117V40.1711Z" fill="#86A5BE"/>
<path d="M39.2891 28.0547H35.6172C34.4055 28.0547 33.4141 29.0461 33.4141 30.2578V40.3922H41.4922V30.2578C41.4922 29.0461 40.5008 28.0547 39.2891 28.0547Z" fill="#D1E8FA"/>
<path d="M41.4922 41.4922C40.868 41.4922 40.3906 41.0148 40.3906 40.3906V30.4766C40.3906 29.8523 39.9133 29.375 39.2891 29.375H35.6172C34.993 29.375 34.5156 29.8523 34.5156 30.4766C34.5156 31.1008 34.0383 31.5781 33.4141 31.5781C32.7898 31.5781 32.3125 31.1008 32.3125 30.4766C32.3125 28.6406 33.7812 27.1719 35.6172 27.1719H39.2891C41.125 27.1719 42.5938 28.6406 42.5938 30.4766V40.3906C42.5938 41.0148 42.1164 41.4922 41.4922 41.4922Z" fill="#444B54"/>
<path d="M11.2358 28.0547H7.56396C6.35225 28.0547 5.36084 29.0461 5.36084 30.2578V40.3922H13.439V30.2578C13.439 29.0461 12.4476 28.0547 11.2358 28.0547Z" fill="#D1E8FA"/>
<path d="M37.453 35.9855H32.0187C32.0187 34.2965 30.7702 32.9012 29.1179 32.6809H29.0812C27.2452 32.4605 19.7546 32.4605 17.9187 32.6809H17.8819C16.2296 32.9012 14.9812 34.2965 14.9812 35.9855H9.5835C8.95928 35.9855 8.48193 36.4629 8.48193 37.0871V40.3918H38.5546V37.0871C38.5546 36.4629 38.0772 35.9855 37.453 35.9855Z" fill="white"/>
<path d="M9.54694 28.5301C8.99616 28.5301 8.55554 28.1262 8.44538 27.5754C8.37194 26.9879 8.77585 26.4004 9.36335 26.327C17.8087 25.0785 29.1548 25.0785 37.6001 26.327C38.1876 26.4004 38.6282 26.9879 38.518 27.5754C38.4446 28.1629 37.8571 28.6035 37.2696 28.4934C29.1548 27.2816 17.8087 27.2816 9.69382 28.4934C9.6571 28.5301 9.58366 28.5301 9.54694 28.5301Z" fill="#444B54"/>
<path d="M37.6733 29.375C37.1226 29.375 36.6452 28.9711 36.5718 28.4203L35.8007 21.9211C35.5437 19.6813 33.671 17.9922 31.4312 17.9922H15.6421C13.4022 17.9922 11.5296 19.6445 11.2726 21.8844L10.5015 28.4203C10.428 29.0078 9.87725 29.4484 9.28975 29.375C8.70225 29.3016 8.26162 28.7508 8.33506 28.1633L9.10615 21.6273C9.51006 18.3227 12.3374 15.7891 15.6788 15.7891H31.4679C34.846 15.7891 37.6733 18.3227 38.0405 21.6641L38.8116 28.1633C38.8851 28.7508 38.4444 29.3016 37.8569 29.375C37.7468 29.375 37.7101 29.375 37.6733 29.375ZM39.289 40.3906V45.5312H34.5155V40.3906H39.289ZM12.3374 40.3906V45.5312H7.56396V40.3906" fill="#444B54"/>
<path d="M39.289 46.6328H34.5155C33.8913 46.6328 33.414 46.1555 33.414 45.5312V40.3906C33.414 39.7664 33.8913 39.2891 34.5155 39.2891C35.1398 39.2891 35.6171 39.7664 35.6171 40.3906V44.4297H38.1874V40.3906C38.1874 39.7664 38.6648 39.2891 39.289 39.2891C39.9132 39.2891 40.3905 39.7664 40.3905 40.3906V45.5312C40.3905 46.1555 39.9132 46.6328 39.289 46.6328ZM12.3374 46.6328H7.56397C6.93975 46.6328 6.4624 46.1555 6.4624 45.5312V40.3906C6.4624 39.7664 6.93975 39.2891 7.56397 39.2891C8.18818 39.2891 8.66553 39.7664 8.66553 40.3906V44.4297H11.2358V40.3906C11.2358 39.7664 11.7132 39.2891 12.3374 39.2891C12.9616 39.2891 13.439 39.7664 13.439 40.3906V45.5312C13.439 46.1555 12.9249 46.6328 12.3374 46.6328Z" fill="#444B54"/>
<path d="M42.5938 41.4922H4.40625C3.78203 41.4922 3.30469 41.0148 3.30469 40.3906C3.30469 39.7664 3.78203 39.2891 4.40625 39.2891H42.5938C43.218 39.2891 43.6953 39.7664 43.6953 40.3906C43.6953 41.0148 43.218 41.4922 42.5938 41.4922ZM27.1719 15.7891V16.8906H19.8281V15.7891C19.8281 14.5773 20.8195 13.5859 22.0312 13.5859H24.9688C26.1805 13.5859 27.1719 14.5773 27.1719 15.7891ZM40.3906 46.6328H7.56406C6.93984 46.6328 6.4625 46.1555 6.4625 45.5312C6.4625 44.907 6.93984 44.4297 7.56406 44.4297H40.3906C41.0148 44.4297 41.4922 44.907 41.4922 45.5312C41.4922 46.1555 41.0148 46.6328 40.3906 46.6328Z" fill="#444B54"/>
<path d="M39.2891 31.5781H35.6172C34.993 31.5781 34.5156 31.1008 34.5156 30.4766C34.5156 29.8523 34.993 29.375 35.6172 29.375H39.2891C39.9133 29.375 40.3906 29.8523 40.3906 30.4766C40.3906 31.1008 39.9133 31.5781 39.2891 31.5781Z" fill="white"/>
<path d="M5.50781 41.4938C4.88359 41.4938 4.40625 41.0164 4.40625 40.3922V30.2578C4.40625 28.4219 5.875 26.9531 7.71094 26.9531H11.3828C13.2188 26.9531 14.6875 28.4219 14.6875 30.2578C14.6875 30.882 14.2102 31.3594 13.5859 31.3594C12.9617 31.3594 12.4844 30.882 12.4844 30.2578C12.4844 29.6336 12.007 29.1563 11.3828 29.1563H7.71094C7.08672 29.1563 6.60938 29.6336 6.60938 30.2578V40.3922C6.60938 41.0164 6.13203 41.4938 5.50781 41.4938Z" fill="#444B54"/>
<path d="M7.71094 31.3594C7.08672 31.3594 6.60938 30.882 6.60938 30.2578C6.60938 29.6336 7.08672 29.1562 7.71094 29.1562H11.3828C12.007 29.1562 12.4844 29.6336 12.4844 30.2578C12.4844 30.882 12.007 31.3594 11.3828 31.3594H7.71094Z" fill="white"/>
<path d="M45.5312 44.4297C45.2391 44.4297 44.9589 44.5457 44.7523 44.7523C44.5457 44.9589 44.4297 45.2391 44.4297 45.5312C44.4297 45.8234 44.5457 46.1036 44.7523 46.3102C44.9589 46.5168 45.2391 46.6328 45.5312 46.6328C45.8234 46.6328 46.1036 46.5168 46.3102 46.3102C46.5168 46.1036 46.6328 45.8234 46.6328 45.5312C46.6328 45.2391 46.5168 44.9589 46.3102 44.7523C46.1036 44.5457 45.8234 44.4297 45.5312 44.4297Z" fill="#444B54"/>
</svg>
