<svg width="20" height="20" viewBox="0 0 20 20" fill="none" xmlns="http://www.w3.org/2000/svg">
<path d="M8.39998 1.19922C4.6406 1.19922 1.59998 4.23984 1.59998 7.99922C1.59998 11.7586 4.6406 14.7992 8.39998 14.7992C9.74216 14.7992 10.9844 14.4055 12.0375 13.7367L16.95 18.6492L18.65 16.9492L13.8 12.1117C14.6719 10.968 15.2 9.55078 15.2 7.99922C15.2 4.23984 12.1594 1.19922 8.39998 1.19922ZM8.39998 2.79922C11.2797 2.79922 13.6 5.11953 13.6 7.99922C13.6 10.8789 11.2797 13.1992 8.39998 13.1992C5.52029 13.1992 3.19998 10.8789 3.19998 7.99922C3.19998 5.11953 5.52029 2.79922 8.39998 2.79922Z" fill="#BEC1C5"/>
</svg>
