<svg width="97" height="97" viewBox="0 0 97 97" fill="none" xmlns="http://www.w3.org/2000/svg">
<path d="M65.6266 87.1484H43.0438C39.4063 87.1484 35.9203 86.5422 32.5102 85.2539C31.2977 84.7992 30.7672 83.5109 31.1461 82.2984C31.6008 81.0859 32.8891 80.5555 34.1016 80.9344C36.9813 81.9953 39.9367 82.5258 43.0438 82.5258H65.6266C68.2031 82.5258 70.4008 80.707 70.8555 78.1305L75.7055 50.8492C76.0086 49.3336 75.5539 47.7422 74.5688 46.5297C73.5836 45.3172 72.068 44.7109 70.5523 44.7109H55.3203C54.032 44.7109 53.0469 43.7258 53.0469 42.4375C53.0469 41.1492 54.032 40.1641 55.3203 40.1641H70.5523C73.5078 40.1641 76.2359 41.4523 78.1305 43.7258C80.025 45.9992 80.7828 48.8789 80.2523 51.7586L75.4023 79.0398C74.493 83.7383 70.4008 87.1484 65.6266 87.1484ZM25.7656 82.6016H18.1875C16.8992 82.6016 15.9141 81.6164 15.9141 80.3281C15.9141 79.0398 16.8992 78.0547 18.1875 78.0547H23.4922V52.2891H18.1875C16.8992 52.2891 15.9141 51.3039 15.9141 50.0156C15.9141 48.7273 16.8992 47.7422 18.1875 47.7422H25.7656C27.0539 47.7422 28.0391 48.7273 28.0391 50.0156V80.3281C28.0391 81.6164 27.0539 82.6016 25.7656 82.6016Z" fill="#444B54"/>
<path d="M33.3428 52.2881C32.585 52.2881 31.903 51.9092 31.4483 51.303C30.7663 50.242 30.9936 48.878 32.0545 48.1202C40.0116 42.6639 45.3163 34.1006 46.6045 24.628L47.0592 21.5967C47.3623 19.3991 48.4991 17.4288 50.3178 16.0647C52.0608 14.7006 54.2584 14.1702 56.4561 14.4733C58.6538 14.7764 60.6241 15.9131 61.9881 17.7319C63.3522 19.5506 63.8827 21.6725 63.5795 23.8702L63.1248 26.9014C62.6702 30.0085 61.9881 33.0397 61.003 35.9952C60.6241 37.2077 59.3358 37.8139 58.1233 37.435C56.9108 37.0561 56.3045 35.7678 56.6834 34.5553C57.5928 31.903 58.1991 29.0991 58.578 26.2952L59.0327 23.2639C59.1842 22.2788 58.8811 21.2936 58.2748 20.46C57.6686 19.6264 56.7592 19.096 55.7741 19.0202C54.7889 18.8686 53.8038 19.1717 52.9702 19.778C52.1366 20.3842 51.6061 21.2936 51.5303 22.2788L51.0756 25.31C49.56 36.071 43.5733 45.771 34.5553 51.985C34.2522 52.1366 33.7975 52.2881 33.3428 52.2881Z" fill="#71C2FF"/>
</svg>
