<svg width="79" height="79" viewBox="0 0 79 79" fill="none" xmlns="http://www.w3.org/2000/svg">
<path d="M64.1875 14.8125H76.5312V8.64062C76.5312 5.24609 73.7539 2.46875 70.3594 2.46875C66.9648 2.46875 64.1875 5.24609 64.1875 8.64062V14.8125Z" fill="#F9F9F9"/>
<path d="M70.3594 2.46875H18.5156C15.1211 2.46875 12.3438 5.24609 12.3438 8.64062V70.3594H58.0156C61.4102 70.3594 64.1875 67.582 64.1875 64.1875V8.64062C64.1875 5.24609 66.9648 2.46875 70.3594 2.46875Z" fill="#F9F9F9"/>
<path d="M70.3594 2.46875H18.5156C15.1211 2.46875 12.3438 5.24609 12.3438 8.64062V70.3594H58.0156C61.4102 70.3594 64.1875 67.582 64.1875 64.1875V8.64062C64.1875 5.24609 66.9648 2.46875 70.3594 2.46875Z" fill="#71C2FF"/>
<path d="M49.9922 38.2656H22.8359C21.7867 38.2656 20.9844 37.4633 20.9844 36.4141C20.9844 35.3648 21.7867 34.5625 22.8359 34.5625H49.9922C51.0414 34.5625 51.8438 35.3648 51.8438 36.4141C51.8438 37.4633 51.0414 38.2656 49.9922 38.2656ZM43.8203 19.75H29.0078C27.9586 19.75 27.1562 18.9477 27.1562 17.8984C27.1562 16.8492 27.9586 16.0469 29.0078 16.0469H43.8203C44.8695 16.0469 45.6719 16.8492 45.6719 17.8984C45.6719 18.9477 44.8695 19.75 43.8203 19.75ZM49.4984 47.5234H22.9594C21.9102 47.5234 21.1078 46.7211 21.1078 45.6719C21.1078 44.6227 21.9102 43.8203 22.9594 43.8203H49.4984C50.5477 43.8203 51.35 44.6227 51.35 45.6719C51.35 46.7211 50.5477 47.5234 49.4984 47.5234ZM51.8438 64.1875V58.0156H9.875V64.1875C9.875 67.582 12.6523 70.3594 16.0469 70.3594H58.0156C54.6211 70.3594 51.8438 67.582 51.8438 64.1875Z" fill="#F9F9F9"/>
<path d="M70.3594 0.617188H18.5156C14.0719 0.617188 10.4922 4.19688 10.4922 8.64062V15.4297C10.4922 16.4789 11.2945 17.2812 12.3438 17.2812C13.393 17.2812 14.1953 16.4789 14.1953 15.4297V8.64062C14.1953 6.23359 16.1086 4.32031 18.5156 4.32031H63.5703C62.768 5.55469 62.3359 7.03594 62.3359 8.64062V64.1875C62.3359 66.5945 60.4227 68.5078 58.0156 68.5078C55.6086 68.5078 53.6953 66.5945 53.6953 64.1875V58.0156C53.6953 56.9664 52.893 56.1641 51.8438 56.1641H42.5859C41.5367 56.1641 40.7344 56.9664 40.7344 58.0156C40.7344 59.0648 41.5367 59.8672 42.5859 59.8672H49.9922V64.1875C49.9922 65.7922 50.4859 67.2734 51.2266 68.5078H40.7344C39.6852 68.5078 38.8828 69.3102 38.8828 70.3594C38.8828 71.4086 39.6852 72.2109 40.7344 72.2109H58.0156C62.4594 72.2109 66.0391 68.6312 66.0391 64.1875V8.64062C66.0391 6.23359 67.9523 4.32031 70.3594 4.32031C72.7664 4.32031 74.6797 6.23359 74.6797 8.64062V12.9609H70.3594C69.3102 12.9609 68.5078 13.7633 68.5078 14.8125C68.5078 15.8617 69.3102 16.6641 70.3594 16.6641H76.5312C77.5805 16.6641 78.3828 15.8617 78.3828 14.8125V8.64062C78.3828 4.19688 74.8031 0.617188 70.3594 0.617188Z" fill="#444B54"/>
<path d="M32.7109 56.7812V76.5312L20.9844 69.125L9.25781 76.5312V56.7812" fill="#1B88D8"/>
<path d="M20.9844 23.4531C16.0737 23.4531 11.3642 25.4039 7.89185 28.8762C4.4195 32.3486 2.46875 37.0581 2.46875 41.9688C2.46875 46.8794 4.4195 51.5889 7.89185 55.0613C11.3642 58.5336 16.0737 60.4844 20.9844 60.4844C25.895 60.4844 30.6045 58.5336 34.0769 55.0613C37.5493 51.5889 39.5 46.8794 39.5 41.9688C39.5 37.0581 37.5493 32.3486 34.0769 28.8762C30.6045 25.4039 25.895 23.4531 20.9844 23.4531Z" fill="#F9F9F9"/>
<path d="M41.3516 41.9688C41.3516 30.7359 32.2172 21.6016 20.9844 21.6016C9.75156 21.6016 0.617188 30.7359 0.617188 41.9688C0.617188 53.2016 9.75156 62.3359 20.9844 62.3359C24.5641 62.3359 27.9586 61.4102 30.8594 59.7438V73.1367L21.9719 67.5203C21.3547 67.15 20.6141 67.15 19.9969 67.5203L11.1094 73.1984V62.9531C11.1094 61.9039 10.307 61.1016 9.25781 61.1016C8.20859 61.1016 7.40625 61.9039 7.40625 62.9531V76.5312C7.40625 77.2102 7.77656 77.8273 8.39375 78.1359C9.01094 78.4445 9.68984 78.4445 10.307 78.0742L21.0461 71.2852L31.7852 78.0742C32.0938 78.2594 32.4023 78.3828 32.7727 78.3828C33.0812 78.3828 33.3898 78.3211 33.6367 78.1359C34.2539 77.8273 34.6242 77.2102 34.6242 76.5312V57.1516C38.6977 53.3867 41.3516 48.0172 41.3516 41.9688ZM4.32031 41.9688C4.32031 32.7727 11.7883 25.3047 20.9844 25.3047C30.1805 25.3047 37.6484 32.7727 37.6484 41.9688C37.6484 51.1648 30.1805 58.6328 20.9844 58.6328C11.7883 58.6328 4.32031 51.1648 4.32031 41.9688Z" fill="#444B54"/>
</svg>
