<svg width="78" height="78" viewBox="0 0 78 78" fill="none" xmlns="http://www.w3.org/2000/svg">
<path d="M30.5898 11.0906V24.4969C30.5898 30.6516 28.5788 36.6234 24.8007 41.4978L7.37256 64.1666C5.23975 67.8844 7.921 72.5156 12.2476 72.5156H65.6288C69.8944 72.5156 72.5751 67.8844 70.5038 64.1672L53.1366 41.4984C49.4188 36.6234 47.3476 30.6516 47.3476 24.4975V11.0912L30.5898 11.0906ZM27.8476 11.0906H50.2116C51.7351 11.0906 53.0148 9.81094 53.0148 8.2875C53.0148 6.76406 51.7351 5.48438 50.2116 5.48438H27.8476C26.3241 5.48438 25.0444 6.76406 25.0444 8.2875C25.0444 9.81094 26.2632 11.0906 27.8476 11.0906Z" fill="white"/>
<path d="M7.43393 64.1664L18.7074 49.4805H59.2308L70.5042 64.1664C72.1496 67.0305 70.9308 70.382 68.3714 71.8451H9.62768C7.00736 70.382 5.84955 67.0305 7.43393 64.1664Z" fill="#71C2FF"/>
<path d="M53.1367 41.497C49.4189 36.622 47.3477 30.6502 47.3477 24.4961V11.0898H43.6914V24.4961C43.6914 30.6508 45.032 35.2211 48.2617 41.497L52.6827 49.4799H59.253L53.1367 41.497Z" fill="#E7E7E7"/>
<path d="M59.2313 49.4805H52.6836L60.8157 64.1664C62.4568 67.0274 61.2478 70.429 58.6311 71.8451H68.2879H68.3561C68.4859 71.7745 68.6127 71.6989 68.7358 71.6185C71.0435 70.0572 72.0703 66.8915 70.5048 64.1664L59.2313 49.4805Z" fill="#1B88D8"/>
<path d="M50.2117 5.48438H44.6055C46.1289 5.48438 47.4086 6.76406 47.4086 8.2875C47.4086 9.81094 46.1289 11.0906 44.6055 11.0906H50.2117C51.7352 11.0906 53.0148 9.81094 53.0148 8.2875C53.0148 6.76406 51.7352 5.48438 50.2117 5.48438Z" fill="#E7E7E7"/>
<path d="M27.7875 56.7312C29.3359 56.7312 30.5906 57.9866 30.5906 59.535C30.5906 61.0828 29.3353 62.3381 27.7875 62.3381C26.2397 62.3381 24.9844 61.0828 24.9844 59.535C24.9844 57.986 26.2397 56.7312 27.7875 56.7312ZM44.4234 51.125C43.5345 51.125 42.6821 51.4781 42.0535 52.1066C41.425 52.7352 41.0719 53.5877 41.0719 54.4766C41.0719 55.3655 41.425 56.2179 42.0535 56.8465C42.6821 57.475 43.5345 57.8281 44.4234 57.8281C45.3123 57.8281 46.1648 57.475 46.7933 56.8465C47.4219 56.2179 47.775 55.3655 47.775 54.4766C47.775 53.5877 47.4219 52.7352 46.7933 52.1066C46.1648 51.4781 45.3123 51.125 44.4234 51.125Z" fill="white"/>
<path d="M72.1507 63.2531C72.1507 63.1922 72.0892 63.1312 72.0288 63.0703L54.6007 40.4016C51.0663 35.8313 49.1773 30.225 49.1773 24.4969V12.9188H50.1523C52.7117 12.9188 54.7841 10.8469 54.8445 8.2875C54.8445 5.72813 52.7726 3.65625 50.2132 3.65625H27.8492C25.2898 3.65625 23.2179 5.72813 23.2179 8.2875C23.2179 10.8469 25.2898 12.9188 27.8492 12.9188H28.8242V24.4969C28.8242 30.225 26.8742 35.8922 23.4007 40.4016L5.97259 63.0703C5.91166 63.1312 5.91166 63.1922 5.85072 63.2531C4.57103 65.5688 4.57103 68.3109 5.91166 70.6272C7.25228 72.9428 9.62884 74.3444 12.3101 74.3444H65.6913C68.3726 74.3444 70.7492 72.9428 72.0898 70.6272C73.4913 68.3109 73.4913 65.5688 72.1507 63.2531ZM27.8492 9.2625C27.3007 9.2625 26.8742 8.83594 26.8742 8.2875C26.8742 7.73906 27.3007 7.3125 27.8492 7.3125H50.1523C50.7007 7.3125 51.1882 7.73906 51.1882 8.2875C51.1882 8.83594 50.7617 9.2625 50.2132 9.2625H27.8492ZM68.921 68.7984C68.2507 70.0172 67.032 70.6875 65.6913 70.6875H12.3101C10.9695 70.6875 9.75072 69.9563 9.08041 68.7984C8.41009 67.6406 8.41009 66.2994 9.01947 65.1422L19.6226 51.3094L36.1367 51.4313C37.1117 51.4313 37.9038 50.6385 37.9038 49.6031C37.9038 48.6275 37.1117 47.775 36.0757 47.775L22.4257 47.6531L26.3257 42.5953C30.2867 37.4766 32.4804 31.0172 32.4804 24.4969V12.9188H45.521V24.4969C45.521 31.0172 47.7148 37.4156 51.6757 42.5953L55.5757 47.7135L51.371 47.775C50.396 47.8359 49.6038 48.6281 49.6038 49.6641C49.6038 50.6391 50.4564 51.4313 51.432 51.4313L58.3788 51.3094L68.982 65.1422C69.5913 66.3 69.5913 67.6406 68.921 68.7984Z" fill="#464C55"/>
<path d="M49.6641 63.9844C49.0984 63.9844 48.5559 64.2091 48.1559 64.6091C47.756 65.009 47.5312 65.5515 47.5312 66.1172C47.5312 66.6828 47.756 67.2253 48.1559 67.6253C48.5559 68.0253 49.0984 68.25 49.6641 68.25C50.2297 68.25 50.7722 68.0253 51.1722 67.6253C51.5722 67.2253 51.7969 66.6828 51.7969 66.1172C51.7969 65.5515 51.5722 65.009 51.1722 64.6091C50.7722 64.2091 50.2297 63.9844 49.6641 63.9844Z" fill="white"/>
</svg>
