<svg width="97" height="97" viewBox="0 0 97 97" fill="none" xmlns="http://www.w3.org/2000/svg">
<path d="M80.8592 57.2143C80.2529 56.987 79.0404 56.7596 79.0404 56.7596C83.4357 56.8354 87.6037 54.2589 89.2709 49.8635C91.317 44.4073 88.5131 38.269 83.0568 36.2229C80.6318 35.3135 78.0553 35.3893 75.8576 36.1471L75.7818 35.844C77.6763 34.4042 79.192 32.4338 80.1013 30.0088C82.6779 23.1128 79.192 15.5346 72.2959 12.9581C65.3998 10.3815 57.8217 13.8674 55.2451 20.7635C54.1842 23.6432 54.1842 26.6745 55.0178 29.4026C53.9568 26.7503 51.8349 24.5526 48.9553 23.4917C43.499 21.4456 37.3607 24.2495 35.3146 29.7057C33.7232 34.0253 35.0873 38.7995 38.4974 41.6034C38.4974 41.6034 37.4365 40.9971 36.8303 40.7698C31.374 38.7237 25.2357 41.5276 23.1896 46.9838C22.2045 49.6362 22.4318 52.2127 23.417 54.6378C28.6459 67.9753 45.6209 73.2042 49.4099 74.2651C52.9717 76.0081 69.2646 83.1315 81.8443 76.5385C84.1935 75.326 86.0881 73.5073 87.0732 70.8549C89.1193 65.3987 86.3912 59.2604 80.8592 57.2143Z" fill="#1B88D8"/>
<path d="M84.6493 57.5924C83.8915 57.5924 83.1337 57.2135 82.679 56.4557C82.0728 55.3948 82.4517 53.9549 83.5126 53.3487C85.1798 52.3635 86.4681 50.9237 87.1501 49.1049C87.9079 46.9831 87.8322 44.7854 86.9228 42.7393C86.0134 40.6932 84.3462 39.1776 82.2243 38.4198C80.4056 37.7377 78.4353 37.7377 76.5408 38.4198C75.9345 38.6471 75.1767 38.5713 74.6462 38.1924C74.04 37.8135 73.6611 37.2831 73.5853 36.601L73.5095 36.2221C73.3579 35.3885 73.7368 34.5549 74.3431 34.1002C76.0103 32.812 77.2228 31.1448 77.9048 29.2502C78.9658 26.5221 78.8142 23.4909 77.6017 20.8385C76.3892 18.1862 74.1915 16.1401 71.4634 15.0791C68.0533 13.7909 64.1884 14.3213 61.2329 16.4432C60.172 17.201 58.8079 16.8979 58.0501 15.9127C57.2923 14.9276 57.5954 13.4877 58.5806 12.7299C62.8244 9.69867 68.2048 9.01664 73.0548 10.8354C76.9197 12.2752 80.0267 15.1549 81.7697 18.944C83.5126 22.7331 83.6642 26.9768 82.2243 30.8416C81.9212 31.751 81.4665 32.5846 81.0119 33.4182C81.997 33.5698 82.9064 33.7971 83.8915 34.1002C87.1501 35.3127 89.6509 37.662 91.0908 40.8448C92.5306 43.9518 92.6064 47.5135 91.4697 50.6963C90.4087 53.5002 88.4384 55.8495 85.8619 57.2893C85.4829 57.5166 85.104 57.5924 84.6493 57.5924ZM69.7962 81.5393C68.4322 81.5393 67.0681 81.4635 65.704 81.312C64.4915 81.1604 63.5822 80.0995 63.6579 78.8112C63.8095 77.5987 64.9462 76.6893 66.1587 76.7651C71.8423 77.3713 76.7681 76.6135 80.7845 74.4916C82.8306 73.4307 84.1947 71.9909 84.9525 70.0205C85.7103 67.8987 85.6345 65.6252 84.6493 63.5791C84.1189 62.4424 84.5736 61.0784 85.7103 60.5479C86.847 60.0174 88.2111 60.4721 88.7415 61.6088C90.2572 64.7916 90.4087 68.3534 89.1204 71.612C87.9837 74.6432 85.8619 76.9924 82.8306 78.508C79.1173 80.5541 74.722 81.5393 69.7962 81.5393Z" fill="#444B54"/>
<path d="M64.6406 49.4109C64.0344 49.4109 62.8219 49.5625 62.8219 49.5625C66.9898 48.1227 69.9453 44.182 69.9453 39.5594C69.9453 33.7242 65.1711 28.95 59.3359 28.95C56.7594 28.95 54.4102 29.8594 52.5156 31.4508L52.3641 31.1477C53.6523 29.1016 54.4102 26.7523 54.4102 24.1758C54.4102 16.825 48.4992 10.9141 41.1484 10.9141C33.7977 10.9141 27.8867 16.825 27.8867 24.1758C27.8867 27.2828 28.9477 30.0867 30.6906 32.3602C28.7203 30.3141 25.9922 28.95 22.9609 28.95C17.1258 28.95 12.3516 33.7242 12.3516 39.5594C12.3516 44.182 15.3828 48.1227 19.475 49.5625C19.475 49.5625 18.2625 49.4109 17.6562 49.4109C11.8211 49.4109 7.04688 54.1852 7.04688 60.0203C7.04688 62.8242 8.18359 65.1734 9.92656 67.1438C19.475 77.7531 37.2078 76.768 41.1484 76.3891C45.0891 76.768 62.8219 77.7531 72.3703 67.1438C74.1891 65.1734 75.25 62.8242 75.25 60.0203C75.25 54.1094 70.4758 49.4109 64.6406 49.4109Z" fill="#71C2FF"/>
<path d="M30.7673 78.5111C30.6915 78.5111 30.6158 78.5111 30.54 78.5111C23.7955 77.829 14.4744 75.5556 8.2603 68.5837C7.4267 67.6744 7.50248 66.2345 8.41186 65.4009C9.32123 64.5673 10.7611 64.6431 11.5947 65.5525C16.8236 71.3876 25.008 73.358 30.9189 73.9642C32.1314 74.1158 33.0408 75.1767 32.965 76.465C32.8892 77.6775 31.904 78.5111 30.7673 78.5111Z" fill="#444B54"/>
<path d="M9.92656 69.3414C9.32031 69.3414 8.71406 69.1141 8.25937 68.5836C5.91016 66.0828 4.77344 63.1273 4.77344 59.9445C4.77344 54.4125 8.25937 49.7141 13.1852 47.8953C11.2148 45.6219 10.0781 42.6664 10.0781 39.4836C10.0781 33.3453 14.4734 27.9648 20.5359 26.8281C21.7484 26.6008 22.9609 27.4344 23.1883 28.6469C23.4156 29.8594 22.582 31.0719 21.3695 31.2992C17.4289 32.057 14.625 35.4672 14.625 39.4836C14.625 43.0453 16.8984 46.2281 20.2328 47.3648C21.3695 47.7437 21.9758 48.8805 21.6727 50.0172C21.3695 51.1539 20.3086 51.9117 19.1719 51.7602C18.7172 51.6844 17.9594 51.6086 17.6562 51.6086C13.0336 51.6086 9.32031 55.3219 9.32031 59.9445C9.32031 62.0664 10.0781 63.8852 11.5938 65.5523C12.4273 66.4617 12.4273 67.9016 11.4422 68.7352C11.0633 69.1898 10.5328 69.3414 9.92656 69.3414ZM30.6906 34.5578C30.0086 34.5578 29.3266 34.2547 28.8719 33.7242C26.6742 30.9961 25.5375 27.6617 25.5375 24.1758C25.5375 15.6125 32.5094 8.64062 41.0727 8.64062C49.6359 8.64062 56.6078 15.6125 56.6078 24.1758C56.6078 25.4641 55.6227 26.4492 54.3344 26.4492C53.0461 26.4492 52.0609 25.4641 52.0609 24.1758C52.0609 18.1133 47.1352 13.1875 41.0727 13.1875C35.0102 13.1875 30.0844 18.1133 30.0844 24.1758C30.0844 26.6766 30.918 28.95 32.4336 30.9203C33.1914 31.9055 33.0398 33.3453 32.0547 34.1031C31.6758 34.4062 31.2211 34.5578 30.6906 34.5578ZM46.3016 78.8141C44.9375 78.8141 43.4977 78.7383 41.982 78.6625C40.6938 78.5867 39.7844 77.5258 39.8602 76.2375C39.9359 74.9492 40.9969 74.0398 42.2852 74.1156C46.832 74.4188 62.3672 74.7219 70.6273 65.5523C71.4609 64.643 72.9008 64.5672 73.8102 65.4008C74.7195 66.2344 74.7953 67.6742 73.9617 68.5836C71.1578 71.8422 62.9734 78.8141 46.3016 78.8141Z" fill="#444B54"/>
<path d="M72.3703 69.3391C71.8399 69.3391 71.2336 69.1117 70.8547 68.7328C69.9453 67.8992 69.8696 66.4594 70.7032 65.55C72.2188 63.8828 72.9766 62.0641 72.9766 59.9422C72.9766 55.3195 69.2633 51.6063 64.6407 51.6063C64.3375 51.6063 63.5039 51.682 63.125 51.7578C61.9883 51.9094 60.8516 51.1516 60.6243 50.0148C60.3211 48.8781 61.0032 47.7414 62.0641 47.3625C65.3985 46.2258 67.6719 43.043 67.6719 39.4812C67.6719 34.8586 63.9586 31.1453 59.336 31.1453C56.9868 31.1453 54.8649 32.0547 53.2735 33.7977C52.4399 34.707 51.0758 34.7828 50.1664 33.9492C49.2571 33.1914 49.1055 31.7516 49.8633 30.8422C51.3789 28.8719 52.2125 26.5227 52.2125 24.0977C52.2125 18.0352 47.2868 13.1094 41.2243 13.1094C39.936 13.1094 38.9508 12.1242 38.9508 10.8359C38.9508 9.54766 39.936 8.5625 41.2243 8.5625C49.7875 8.5625 56.7594 15.5344 56.7594 24.0977C56.7594 25.0828 56.6836 25.9922 56.5321 26.9773C57.5172 26.75 58.4266 26.6742 59.4118 26.6742C66.5352 26.6742 72.2946 32.4336 72.2946 39.557C72.2946 42.7398 71.1578 45.6195 69.1875 47.9688C74.1133 49.7875 77.5993 54.4859 77.5993 60.018C77.5993 63.2766 76.3868 66.1562 74.1133 68.657C73.5828 69.1117 72.9766 69.3391 72.3703 69.3391ZM44.786 88.4359C44.1039 88.4359 43.4219 88.1328 42.9672 87.5266C42.5883 87.0719 34.025 75.3258 38.7993 26.8258C38.9508 25.6133 40.0875 24.6281 41.3 24.7797C42.5125 24.9313 43.4977 25.9922 43.3461 27.2805C38.875 73.2797 46.5289 84.7227 46.6047 84.7984C47.3625 85.7836 47.211 87.2234 46.15 87.9812C45.7711 88.2844 45.2407 88.4359 44.786 88.4359Z" fill="#444B54"/>
<path d="M38.195 51.987C37.6645 51.987 37.2098 51.8355 36.7552 51.4566L29.3286 45.3941C28.3434 44.6362 28.1919 43.1964 29.0255 42.2112C29.7833 41.2261 31.2231 41.0745 32.2083 41.9081L39.6348 47.9706C40.62 48.7284 40.7716 50.1683 39.938 51.1534C39.4833 51.6839 38.8012 51.987 38.195 51.987ZM40.0137 43.1206C39.3317 43.1206 38.6497 42.8175 38.195 42.2112C37.4372 41.2261 37.6645 39.7862 38.6497 39.0284L43.4239 35.4667C44.4091 34.7089 45.8489 34.9362 46.6067 35.9214C47.3645 36.9066 47.1372 38.3464 46.152 39.1042L41.3778 42.6659C40.9231 42.969 40.4684 43.1206 40.0137 43.1206ZM46.6067 61.8386C45.8489 61.8386 45.0911 61.4597 44.6364 60.7776C43.9544 59.7167 44.3333 58.2769 45.3942 57.6706L53.1997 52.8206C54.2606 52.1386 55.7005 52.5175 56.3067 53.5784C56.9887 54.6394 56.6098 56.0792 55.5489 56.6855L47.7434 61.5355C47.4403 61.687 46.9856 61.8386 46.6067 61.8386Z" fill="#444B54"/>
<path d="M35.3133 19.932C34.707 19.932 34.1008 19.7047 33.6461 19.1742C32.8125 18.2648 32.8883 16.825 33.7977 15.9914C35.8437 14.1727 38.4203 13.1875 41.1484 13.1875C42.4367 13.1875 43.4219 14.1727 43.4219 15.4609C43.4219 16.7492 42.4367 17.7344 41.1484 17.7344C39.557 17.7344 38.0414 18.3406 36.8289 19.4016C36.3742 19.7047 35.8437 19.932 35.3133 19.932ZM32.4336 26.3734C31.8273 26.3734 31.2211 26.1461 30.8422 25.6914C30.3875 25.2367 30.1602 24.7062 30.1602 24.1C30.1602 23.4937 30.3875 22.8875 30.8422 22.5086C30.918 22.4328 31.0695 22.2812 31.2211 22.2055C31.3727 22.1297 31.4484 22.0539 31.6 21.9781C31.7516 21.9023 31.9031 21.9023 32.0547 21.8266C32.8125 21.675 33.5703 21.9023 34.1008 22.4328C34.5555 22.8875 34.7828 23.418 34.7828 24.0242C34.7828 24.6305 34.5555 25.2367 34.1008 25.6156C33.5703 26.1461 33.0398 26.3734 32.4336 26.3734Z" fill="white"/>
</svg>
