<svg width="16" height="16" viewBox="0 0 16 16" fill="none" xmlns="http://www.w3.org/2000/svg">
<path d="M3.33333 2C2.60462 2 2 2.60462 2 3.33333V12.6667C2 13.3954 2.60462 14 3.33333 14H12.6667C13.3954 14 14 13.3954 14 12.6667V3.33333C14 2.60462 13.3954 2 12.6667 2H3.33333ZM3.33333 3.33333H12.6667V12.6667H3.33333V3.33333ZM5.66667 4.66667C5.40145 4.66667 5.1471 4.77202 4.95956 4.95956C4.77202 5.1471 4.66667 5.40145 4.66667 5.66667C4.66667 5.93188 4.77202 6.18624 4.95956 6.37377C5.1471 6.56131 5.40145 6.66667 5.66667 6.66667C5.93188 6.66667 6.18624 6.56131 6.37377 6.37377C6.56131 6.18624 6.66667 5.93188 6.66667 5.66667C6.66667 5.40145 6.56131 5.1471 6.37377 4.95956C6.18624 4.77202 5.93188 4.66667 5.66667 4.66667ZM10.1953 4.86198L4.86198 10.1953L5.80469 11.138L11.138 5.80469L10.1953 4.86198ZM10.3333 9.33333C10.0681 9.33333 9.81376 9.43869 9.62623 9.62623C9.43869 9.81376 9.33333 10.0681 9.33333 10.3333C9.33333 10.5985 9.43869 10.8529 9.62623 11.0404C9.81376 11.228 10.0681 11.3333 10.3333 11.3333C10.5985 11.3333 10.8529 11.228 11.0404 11.0404C11.228 10.8529 11.3333 10.5985 11.3333 10.3333C11.3333 10.0681 11.228 9.81376 11.0404 9.62623C10.8529 9.43869 10.5985 9.33333 10.3333 9.33333Z" fill="white"/>
</svg>
