<svg width="20" height="20" viewBox="0 0 20 20" fill="none" xmlns="http://www.w3.org/2000/svg">
<path d="M9.81209 2.5C8.62459 2.5 5.68734 2.62476 4.12484 4.12476C2.99984 5.18726 2.56258 6.8125 2.50008 8.75C2.37508 11.8125 3.06209 13.7498 4.18709 14.7498C4.43709 14.9373 5.06258 15.438 6.25008 15.813V17.3755C6.25008 17.3755 6.24984 18 6.62484 18.125C6.68734 18.125 6.75032 18.1873 6.81282 18.1873C7.18782 18.1873 7.49959 17.7495 7.93709 17.312C8.31209 16.8745 8.62484 16.5625 8.81234 16.25H9.68758H10.1881C11.3756 16.25 14.3128 16.1252 15.8753 14.6252C17.0003 13.5002 17.4378 11.8745 17.4378 9.81201C17.5003 9.49951 17.5001 9.125 17.5001 8.75C17.4376 6.4375 16.7506 4.87524 15.8131 4.00024C15.4381 3.68774 13.8126 2.5 10.3126 2.5H9.81209ZM9.68758 3.68774H10.1246H10.1881H10.2503C13.5628 3.68774 14.8128 4.75049 14.9378 4.87549C15.6878 5.50049 16.1253 6.87524 16.1878 8.68774V8.93799C16.2503 9.31299 16.2501 9.62451 16.2501 9.81201C16.1876 11.687 15.8123 12.9375 15.0623 13.75C13.7498 14.9375 11.0003 15 10.2503 15H9.81209H9.74984H9.68758H9.06258L8.06282 16.1255L7.43782 16.8127L7.31209 16.9995C7.18709 17.1245 7.00008 17.3752 6.87508 17.4377V17.312V14.6252C5.62508 14.3127 5.12508 13.875 5.00008 13.75C4.12508 13 3.62508 11.1875 3.75008 8.75V8.125C3.87508 6.625 4.25057 5.62524 4.87557 4.93774C6.18807 3.75024 8.93758 3.68774 9.68758 3.68774ZM9.62532 5.06226C9.31282 5.06226 9.31282 5.50049 9.62532 5.50049C11.9378 5.50049 13.9381 7.0625 13.9381 10C13.9381 10.3125 14.3751 10.3125 14.3751 10C14.3751 6.8125 12.2503 4.99976 9.62532 5.06226ZM7.14852 5.64087C7.01571 5.62524 6.87557 5.65576 6.75057 5.74951C6.12557 6.06201 5.49984 6.68799 5.68734 7.37549C5.68734 7.37549 5.81282 7.93726 6.50032 9.12476C6.87532 9.68726 7.18758 10.1877 7.50008 10.5627C7.81258 11.0002 8.31234 11.5 8.81234 11.875C9.81234 12.6875 11.3756 13.5002 12.0631 13.6877C12.6881 13.8752 13.3753 13.2495 13.6878 12.6245C13.8128 12.3745 13.7498 12.0625 13.4998 11.875C13.1248 11.5 12.5006 11.063 12.0631 10.813C11.7506 10.6255 11.3751 10.75 11.2501 10.9375L10.9376 11.3123C10.8126 11.4998 10.5006 11.5002 10.5006 11.5002C8.43807 10.9377 7.87484 8.81226 7.87484 8.81226C7.87484 8.81226 7.87532 8.56274 8.06282 8.37524L8.43758 8.06274C8.62508 7.93774 8.74959 7.56226 8.56209 7.24976C8.43709 7.06226 8.25032 6.68774 8.06282 6.50024C7.87532 6.25024 7.50008 5.81299 7.50008 5.81299C7.40633 5.71924 7.28133 5.65649 7.14852 5.64087ZM10.0623 6.31226C9.74984 6.24976 9.68758 6.75049 10.0001 6.75049C11.7501 6.87549 12.7506 8.06299 12.6881 9.56299C12.6256 9.87549 13.1251 9.87549 13.1251 9.56299C13.1876 7.81299 12.0623 6.37476 10.0623 6.31226ZM10.2503 7.5C9.93782 7.4375 9.93782 7.93701 10.2503 7.93701C11.0003 7.93701 11.3746 8.37476 11.3746 9.12476C11.4371 9.43726 11.8751 9.43726 11.8751 9.12476C11.8126 8.12476 11.2503 7.5 10.2503 7.5Z" fill="#7491A5" fill-opacity="0.6"/>
</svg>
