<svg width="16" height="15" viewBox="0 0 16 15" fill="none" xmlns="http://www.w3.org/2000/svg">
<g clip-path="url(#clip0)">
<path d="M15.9152 10.9516C15.8958 10.9125 15.8777 10.88 15.861 10.854C15.5834 10.3853 15.0529 9.80997 14.2698 9.12788L14.2533 9.11227L14.245 9.10461L14.2366 9.09676H14.2282C13.8728 8.77914 13.6478 8.56559 13.5535 8.45625C13.3811 8.24798 13.3425 8.03716 13.4367 7.82354C13.5033 7.66215 13.7534 7.32132 14.1865 6.80057C14.4143 6.52459 14.5947 6.30341 14.7279 6.13676C15.6888 4.93919 16.1053 4.17392 15.9775 3.84066L15.9279 3.76279C15.8946 3.7159 15.8085 3.67301 15.6698 3.63389C15.5308 3.59486 15.3531 3.5884 15.1365 3.61442L12.7373 3.62995C12.6985 3.61704 12.643 3.61825 12.5707 3.63389C12.4985 3.64954 12.4623 3.65739 12.4623 3.65739L12.4206 3.67695L12.3874 3.70044C12.3597 3.71598 12.3291 3.74331 12.2958 3.78237C12.2626 3.8213 12.2348 3.86698 12.2127 3.91903C11.9515 4.54903 11.6545 5.13477 11.3212 5.67623C11.1157 5.99909 10.927 6.2789 10.7546 6.51581C10.5825 6.75265 10.4381 6.92714 10.3215 7.03899C10.2048 7.15096 10.0995 7.24065 10.0049 7.30841C9.91046 7.37619 9.83836 7.40483 9.78844 7.39435C9.7384 7.38388 9.69128 7.37348 9.64666 7.36309C9.56896 7.3162 9.50646 7.25244 9.45934 7.17174C9.41201 7.09105 9.38015 6.98948 9.36349 6.86713C9.34692 6.74469 9.33711 6.63937 9.33431 6.55083C9.33171 6.46239 9.33291 6.3373 9.33854 6.17591C9.34432 6.01444 9.34692 5.90518 9.34692 5.8479C9.34692 5.65002 9.35103 5.43526 9.35929 5.20357C9.36769 4.97188 9.37449 4.7883 9.38018 4.65306C9.38584 4.51768 9.38847 4.37446 9.38847 4.22346C9.38847 4.07246 9.37866 3.95405 9.35929 3.8681C9.34015 3.78226 9.31077 3.69894 9.27205 3.61816C9.23309 3.53747 9.17608 3.47504 9.10127 3.43073C9.02631 3.38647 8.93311 3.35135 8.82221 3.32525C8.52783 3.2628 8.15298 3.22902 7.69748 3.22377C6.66455 3.21337 6.00084 3.2759 5.70649 3.41128C5.58987 3.46848 5.48433 3.54663 5.38997 3.64549C5.28998 3.76008 5.27603 3.82261 5.34821 3.8329C5.68149 3.8797 5.91742 3.99166 6.05628 4.16867L6.10632 4.26247C6.14524 4.33014 6.18411 4.44996 6.223 4.62174C6.26184 4.79353 6.2869 4.98356 6.29793 5.19172C6.32565 5.57187 6.32565 5.89728 6.29793 6.16798C6.27012 6.43878 6.24386 6.6496 6.2188 6.8006C6.19374 6.9516 6.15627 7.07395 6.10632 7.16764C6.05628 7.26136 6.02299 7.31864 6.0063 7.33943C5.98964 7.36022 5.97575 7.37332 5.96472 7.37846C5.89253 7.40439 5.81746 7.41761 5.73975 7.41761C5.66194 7.41761 5.56757 7.38111 5.45652 7.30819C5.3455 7.23526 5.23028 7.13509 5.11085 7.00751C4.99143 6.8799 4.85674 6.70158 4.70674 6.47251C4.55685 6.24345 4.40133 5.97272 4.24027 5.66033L4.10701 5.43378C4.02371 5.28804 3.90991 5.07582 3.76551 4.79733C3.62102 4.51872 3.49331 4.24923 3.38229 3.9889C3.33791 3.87956 3.27124 3.79632 3.18239 3.73904L3.14069 3.71554C3.11297 3.69476 3.06848 3.67268 3.00744 3.64916C2.94631 3.62566 2.88253 3.60881 2.81582 3.59844L0.533257 3.61398C0.300008 3.61398 0.141747 3.66352 0.0584144 3.76246L0.0250639 3.80926C0.00840327 3.83533 0 3.87696 0 3.93427C0 3.99155 0.0166606 4.06185 0.0500111 4.14509C0.383224 4.87928 0.745586 5.58735 1.1371 6.26941C1.52861 6.95146 1.86882 7.50087 2.15754 7.91715C2.44631 8.33373 2.74066 8.7269 3.04058 9.09645C3.3405 9.46615 3.53903 9.70307 3.63617 9.80715C3.73342 9.91142 3.8098 9.98938 3.86533 10.0414L4.07363 10.2288C4.20692 10.3538 4.40264 10.5035 4.6609 10.6779C4.91921 10.8524 5.20518 11.0242 5.51896 11.1935C5.8328 11.3626 6.19791 11.5006 6.61448 11.6073C7.031 11.7141 7.4364 11.757 7.83074 11.7363H8.78877C8.98307 11.7206 9.13027 11.6633 9.23032 11.5644L9.26347 11.5253C9.28576 11.4942 9.30662 11.4459 9.32588 11.381C9.34537 11.3159 9.35506 11.2442 9.35506 11.1662C9.34937 10.9424 9.36755 10.7406 9.40909 10.561C9.45061 10.3815 9.49794 10.2461 9.55087 10.1549C9.60377 10.0638 9.66347 9.98695 9.72991 9.92464C9.79649 9.86219 9.84394 9.82435 9.87177 9.81133C9.89943 9.79823 9.92152 9.78934 9.93818 9.78401C10.0715 9.74237 10.2283 9.78269 10.409 9.90516C10.5895 10.0275 10.7588 10.1786 10.9172 10.3581C11.0755 10.5379 11.2657 10.7395 11.4878 10.9633C11.71 11.1873 11.9044 11.3537 12.0709 11.4632L12.2375 11.5569C12.3487 11.6195 12.4931 11.6767 12.6708 11.7288C12.8483 11.7808 13.0037 11.7938 13.1372 11.7678L15.2698 11.7366C15.4807 11.7366 15.6448 11.7039 15.7612 11.6389C15.8779 11.5739 15.9472 11.5022 15.9695 11.4242C15.9918 11.3461 15.993 11.2575 15.9738 11.1585C15.954 11.0597 15.9346 10.9907 15.9152 10.9516Z" fill="white"/>
</g>
<defs>
<clipPath id="clip0">
<rect width="16" height="15" fill="white"/>
</clipPath>
</defs>
</svg>
