<svg width="16" height="16" viewBox="0 0 16 16" fill="none" xmlns="http://www.w3.org/2000/svg">
<path d="M3.88467 0.0195312L4.98082 3.61569V5.96184H5.9039V3.5003L6.96159 0.0195312H6.03852L5.46159 2.38492H5.4039L4.80775 0.0195312H3.88467ZM8.13467 1.46184C7.76448 1.46184 7.4688 1.56761 7.25005 1.76953C7.0313 1.96905 6.92313 2.23828 6.92313 2.57722V4.84645C6.92313 5.21905 7.03611 5.53155 7.25005 5.7503C7.4664 5.97145 7.73804 6.07722 8.09621 6.07722C8.4664 6.07722 8.76929 5.96424 8.98082 5.7503C9.19236 5.53636 9.28852 5.24069 9.28852 4.86569V2.59645C9.28852 2.26232 9.17794 2.0003 8.96159 1.78876C8.74765 1.57482 8.47361 1.46184 8.13467 1.46184ZM9.98082 1.57722V5.2503C9.98082 5.51232 10.0385 5.69742 10.1347 5.82722C10.2308 5.95703 10.3702 6.01953 10.5577 6.01953C10.7092 6.01953 10.8582 5.97626 11.0193 5.88492C11.1827 5.79117 11.351 5.65895 11.5001 5.48107V5.96184H12.3077V1.57722H11.5001V4.90415C11.4231 4.9979 11.3414 5.07482 11.2501 5.13492C11.1587 5.19742 11.0794 5.23107 11.0193 5.23107C10.9448 5.23107 10.8799 5.21905 10.8462 5.17338C10.8102 5.1277 10.8077 5.04357 10.8077 4.94261V1.57722H9.98082ZM8.09621 2.23107C8.20438 2.23107 8.30054 2.2503 8.36544 2.30799C8.43275 2.36809 8.46159 2.44501 8.46159 2.53876V4.94261C8.46159 5.0604 8.43034 5.14693 8.36544 5.21184C8.30054 5.27915 8.20679 5.30799 8.09621 5.30799C7.98804 5.30799 7.9039 5.27674 7.84621 5.21184C7.78611 5.14693 7.76929 5.0628 7.76929 4.94261V2.53876C7.76929 2.44501 7.80294 2.36809 7.86544 2.30799C7.92794 2.2503 7.99765 2.23107 8.09621 2.23107ZM8.00005 6.86569C6.4039 6.86328 4.839 6.8777 3.30775 6.94261C2.23804 6.94261 1.36544 7.80559 1.36544 8.86569C1.30054 9.70463 1.26688 10.546 1.26929 11.3849C1.26688 12.2239 1.30054 13.0652 1.36544 13.9041C1.36544 14.9642 2.23804 15.8272 3.30775 15.8272C4.839 15.8897 6.4039 15.9066 8.00005 15.9041C9.59861 15.909 11.1635 15.8897 12.6924 15.8272C13.7621 15.8272 14.6347 14.9642 14.6347 13.9041C14.6996 13.0652 14.7332 12.2239 14.7308 11.3849C14.7356 10.546 14.6996 9.70463 14.6347 8.86569C14.6347 7.80559 13.7621 6.94261 12.6924 6.94261C11.1635 6.8777 9.59861 6.86328 8.00005 6.86569ZM2.30775 8.23107H5.13467C5.18515 8.23107 5.23082 8.27674 5.23082 8.32722V9.19261C5.23082 9.24309 5.18515 9.28876 5.13467 9.28876H4.26929V14.2695C4.26929 14.32 4.24284 14.3657 4.19236 14.3657H3.26929C3.2188 14.3657 3.17313 14.32 3.17313 14.2695V9.28876H2.30775C2.25727 9.28876 2.23082 9.24309 2.23082 9.19261V8.32722C2.23082 8.27674 2.25727 8.23107 2.30775 8.23107ZM8.25005 8.23107H9.07698C9.12746 8.23107 9.17313 8.27674 9.17313 8.32722V10.0003C9.24044 9.9378 9.31256 9.88732 9.38467 9.84645C9.52409 9.76953 9.66592 9.73107 9.80775 9.73107C10.0962 9.73107 10.3077 9.84645 10.4616 10.058C10.6082 10.2623 10.6924 10.5484 10.6924 10.9234V13.3657C10.6924 13.6974 10.6227 13.9546 10.4808 14.1349C10.3342 14.3224 10.1154 14.4234 9.84621 14.4234C9.67554 14.4234 9.52409 14.3777 9.38467 14.308C9.31015 14.2695 9.24044 14.2335 9.17313 14.1734V14.2695C9.17313 14.32 9.12746 14.3657 9.07698 14.3657H8.25005C8.19957 14.3657 8.1539 14.32 8.1539 14.2695V8.32722C8.1539 8.27674 8.19957 8.23107 8.25005 8.23107ZM12.4424 9.67338C12.8414 9.67338 13.1683 9.79838 13.3847 10.0388C13.601 10.2791 13.7116 10.6205 13.7116 11.058V12.1926C13.7116 12.2431 13.6659 12.2695 13.6154 12.2695H12.1539V13.0195C12.1539 13.2888 12.1827 13.3945 12.2116 13.4426C12.2356 13.4811 12.2765 13.5388 12.4039 13.5388C12.5073 13.5388 12.5794 13.5099 12.6154 13.4618C12.6323 13.4354 12.6731 13.3392 12.6731 13.0195V12.7118C12.6731 12.6614 12.7188 12.6157 12.7693 12.6157H13.6154C13.6659 12.6157 13.7116 12.6614 13.7116 12.7118V13.0388C13.7116 13.5123 13.5842 13.8729 13.3654 14.1157C13.1467 14.3609 12.8174 14.4811 12.3847 14.4811C11.9928 14.4811 11.6876 14.3585 11.4616 14.0965C11.238 13.8392 11.1154 13.4835 11.1154 13.0388V11.058C11.1154 10.6541 11.2332 10.3344 11.4808 10.0772C11.7284 9.82001 12.0529 9.67338 12.4424 9.67338ZM5.13467 9.78876H5.94236C5.99284 9.78876 6.03852 9.83444 6.03852 9.88492V13.2503C6.03852 13.3609 6.04573 13.4066 6.05775 13.4234C6.06255 13.4306 6.08419 13.4618 6.1539 13.4618C6.17794 13.4618 6.23082 13.4522 6.32698 13.3849C6.4063 13.332 6.47602 13.2671 6.53852 13.1926V9.88492C6.53852 9.83444 6.58419 9.78876 6.63467 9.78876H7.46159C7.51207 9.78876 7.53852 9.83444 7.53852 9.88492V14.2695C7.53852 14.32 7.51207 14.3657 7.46159 14.3657H6.63467C6.58419 14.3657 6.53852 14.32 6.53852 14.2695V14.0195C6.43034 14.1253 6.32457 14.2046 6.21159 14.2695C6.03371 14.3705 5.86544 14.4234 5.69236 14.4234C5.47361 14.4234 5.30534 14.3489 5.19236 14.1926C5.08419 14.046 5.03852 13.8368 5.03852 13.558V9.88492C5.03852 9.83444 5.08419 9.78876 5.13467 9.78876ZM9.38467 10.6157C9.35342 10.6205 9.32217 10.6373 9.28852 10.6541C9.25005 10.6734 9.21159 10.7094 9.17313 10.7503V13.4041C9.22121 13.4546 9.26207 13.4979 9.30775 13.5195C9.35823 13.5436 9.4063 13.558 9.46159 13.558C9.56496 13.558 9.60582 13.5147 9.61544 13.5003C9.63948 13.4691 9.6539 13.3969 9.6539 13.2503V10.9811C9.6539 10.8561 9.64188 10.7527 9.59621 10.6926C9.55054 10.6325 9.47842 10.5989 9.38467 10.6157ZM12.4231 10.6349C12.3246 10.6349 12.2525 10.6566 12.2116 10.7118C12.1827 10.7527 12.1539 10.8537 12.1539 11.058V11.4041H12.6731V11.058C12.6731 10.8561 12.6467 10.7575 12.6154 10.7118C12.577 10.659 12.5169 10.6349 12.4231 10.6349Z" fill="white"/>
</svg>
